<?xml version="1.0" encoding="UTF-8"?>
<svg version="1.1" xmlns="http://www.w3.org/2000/svg" width="8000" height="1577">
<path d="M0 0 C1.59555683 -0.00165181 3.19111326 -0.00373908 4.78666902 -0.0062201 C9.17033973 -0.01176853 13.55399085 -0.01111769 17.93766394 -0.00944251 C22.70737278 -0.00870996 27.47707616 -0.01373778 32.24678266 -0.01801753 C41.7067132 -0.0255904 51.1666381 -0.02779023 60.62657135 -0.02834659 C71.95818723 -0.02926094 83.2897979 -0.03593066 94.62141153 -0.04269341 C122.0102578 -0.0587491 149.39910351 -0.06465637 176.78795364 -0.06944216 C189.74789228 -0.07177871 202.70783047 -0.07538145 215.66776876 -0.07913754 C259.34580125 -0.09177205 303.02383344 -0.10258506 346.70186768 -0.10597799 C348.78889218 -0.10614023 350.87591668 -0.10630579 352.96294117 -0.10647238 C357.14835918 -0.10680617 361.33377719 -0.10713665 365.5191952 -0.10746694 C370.41908935 -0.10785383 375.31898351 -0.10824344 380.21887766 -0.108638 C381.62125645 -0.10875042 383.02363524 -0.10886184 384.42601402 -0.10897225 C429.44528965 -0.11252008 474.46454931 -0.12759193 519.48381884 -0.15091 C551.83852012 -0.16766157 584.19321838 -0.1831309 616.54792404 -0.18764496 C617.2139341 -0.18773844 617.87994416 -0.18783193 618.56613635 -0.18792825 C633.84621978 -0.19003836 649.12630316 -0.19112464 664.40638673 -0.19150805 C669.63494897 -0.19167951 674.86351121 -0.19189493 680.09207344 -0.19214249 C681.37946968 -0.19219826 682.66686593 -0.19225402 683.99327418 -0.19231148 C704.69165661 -0.19346108 725.39002249 -0.2044754 746.08839933 -0.21902954 C766.90329493 -0.23341223 787.71816935 -0.23662153 808.53306855 -0.22858956 C820.89011068 -0.22414155 833.24708433 -0.22796075 845.60411742 -0.24382807 C853.87125203 -0.2536096 862.13833889 -0.25236963 870.4054731 -0.24239184 C875.10746085 -0.23702262 879.80931754 -0.2362154 884.5112942 -0.24890056 C903.63832851 -0.29729664 922.34295123 -0.08216101 941.26555443 3.13142776 C942.31028948 3.30693614 942.31028948 3.30693614 943.3761303 3.48599014 C947.07530688 4.11883194 950.73278534 4.85426554 954.39055443 5.69392776 C956.04051414 6.0696492 956.04051414 6.0696492 957.72380638 6.45296097 C1017.75188849 20.73572276 1075.18131383 55.03108451 1113.26555443 104.13142776 C1114.2717952 105.39726715 1115.27832552 106.66287642 1116.28508568 107.92830276 C1161.45378002 165.22569084 1176.82895498 232.01442517 1176.64475573 303.47515273 C1176.63611166 308.15277494 1176.64518007 312.83037235 1176.65181988 317.50799328 C1176.66104631 325.67649358 1176.65931686 333.84493208 1176.65008736 342.01343155 C1176.63640058 354.16054595 1176.64008138 366.30761354 1176.64704596 378.45473146 C1176.65893286 400.1560038 1176.65391717 421.85724696 1176.64176769 443.55851767 C1176.63121053 462.54587231 1176.62669487 481.53321702 1176.6280632 500.52057457 C1176.62818925 502.41347671 1176.62818925 502.41347671 1176.62831784 504.34461931 C1176.62867011 509.46779371 1176.62905413 514.59096812 1176.62948342 519.71414252 C1176.6324305 555.43802227 1176.63010624 591.16189866 1176.61557293 626.88577557 C1176.61516315 627.89412241 1176.61516315 627.89412241 1176.61474509 628.9228399 C1176.61029213 639.83744275 1176.60557703 650.75204548 1176.6008462 661.66664822 C1176.58209554 704.96505263 1176.5756848 748.26343958 1176.58122826 791.56184769 C1176.58157524 794.2992781 1176.58192086 797.03670851 1176.58226655 799.77413892 C1176.58235215 800.45097306 1176.58243775 801.1278072 1176.58252595 801.82515147 C1176.58347217 809.3216626 1176.58438389 816.81817373 1176.58525372 824.31468487 C1176.58537209 825.32319145 1176.58537209 825.32319145 1176.58549286 826.35207191 C1176.5897192 862.68298204 1176.584403 899.01389027 1176.57574242 935.34479958 C1176.57483542 939.18205534 1176.57392977 943.01931111 1176.57302719 946.85656687 C1176.57242608 949.40188787 1176.57181747 951.94720887 1176.57120128 954.49252987 C1176.5669853 972.21331743 1176.56639939 989.93410181 1176.56830678 1007.65488971 C1176.5707525 1030.48975681 1176.5666553 1053.3246069 1176.55109677 1076.15946936 C1176.54306407 1088.22595854 1176.54043204 1100.29241941 1176.54573913 1112.35891027 C1176.54872648 1120.42914972 1176.5443813 1128.49936426 1176.53419055 1136.56959777 C1176.52859041 1141.16040836 1176.52601777 1145.75116145 1176.53235713 1150.3419724 C1176.55516338 1168.35623726 1176.51411485 1186.22292784 1174.26555443 1204.13142776 C1174.11680738 1205.33381967 1173.96806034 1206.53621158 1173.81480581 1207.77503961 C1173.45789057 1210.48987967 1173.04040606 1213.1826904 1172.57805443 1215.88142776 C1172.4114431 1216.85837601 1172.24483177 1217.83532425 1172.07317162 1218.84187698 C1161.62300811 1276.94441745 1132.56059141 1328.81805033 1091.20305443 1370.44392776 C1090.29313744 1371.36319046 1089.38322044 1372.28245316 1088.44573021 1373.2295723 C1072.81203306 1388.79017537 1054.62377224 1402.51281167 1035.26555443 1413.13142776 C1034.0053347 1413.82317093 1034.0053347 1413.82317093 1032.71965599 1414.5288887 C988.29575095 1438.6986381 941.04355305 1451.33653738 890.38249969 1451.26006222 C888.81980035 1451.26141182 887.25710134 1451.26319737 885.69440293 1451.26537445 C881.42060936 1451.27007304 877.14683728 1451.26861305 872.8730427 1451.26609668 C868.21549095 1451.2644562 863.55794367 1451.26861058 858.90039337 1451.27200586 C850.74381926 1451.27714939 842.58725108 1451.27857887 834.43067551 1451.27754974 C822.30093085 1451.27602306 810.17119274 1451.28019049 798.04144936 1451.28542437 C775.11437781 1451.29509092 752.1873085 1451.29790836 729.26023515 1451.29848143 C711.55148615 1451.29894116 693.84273804 1451.30100052 676.13398933 1451.30418205 C671.03445335 1451.30507962 665.93491737 1451.30596943 660.83538139 1451.30685693 C659.56757381 1451.30707798 658.29976623 1451.30729903 656.99354024 1451.30752677 C621.33577891 1451.31368035 585.67801788 1451.3176333 550.02025604 1451.31718349 C548.66252248 1451.31716772 547.30478891 1451.31715198 545.94705535 1451.31713629 C539.81737844 1451.31706291 533.68770154 1451.31697474 527.55802464 1451.3168824 C524.82480366 1451.31684128 522.09158268 1451.31680113 519.3583617 1451.31676109 C517.99033674 1451.31674069 516.62231178 1451.31671967 515.25428682 1451.31669803 C472.01227097 1451.31601805 428.7702633 1451.3233314 385.52824974 1451.33723831 C374.63559598 1451.34073957 363.74294222 1451.34420914 352.85028839 1451.34750271 C351.84411798 1451.34780702 351.84411798 1451.34780702 350.81762089 1451.34811748 C314.55951983 1451.3590171 278.30141836 1451.36097929 242.04331577 1451.36027509 C236.94063624 1451.36020046 231.83795671 1451.36015175 226.73527718 1451.36012077 C225.47889625 1451.36010912 224.22251531 1451.36009746 222.92806224 1451.36008546 C202.73201391 1451.36005472 182.53597253 1451.36643367 162.33992626 1451.37505304 C142.03185538 1451.38354077 121.7237946 1451.38451071 101.41572292 1451.37794372 C89.36083755 1451.37425545 77.30598296 1451.37605877 65.25110086 1451.38588606 C57.18551591 1451.39190398 49.11995315 1451.39057052 41.0543692 1451.38341556 C36.46758937 1451.3795493 31.88086893 1451.37871398 27.29409339 1451.38687291 C3.84797205 1451.42585987 -19.54256766 1451.29325644 -42.67194557 1446.94392776 C-44.41604713 1446.62029251 -44.41604713 1446.62029251 -46.19538307 1446.29011917 C-96.41910406 1436.60392108 -141.30395015 1413.51523961 -179.73444557 1380.13142776 C-181.02995338 1379.0060762 -181.02995338 1379.0060762 -182.35163307 1377.85799026 C-191.7440811 1369.5458238 -200.66809339 1360.85455526 -208.45051003 1351.00032425 C-210.60280929 1348.2967787 -212.80514318 1345.64346434 -215.01960182 1342.99080276 C-253.22013669 1296.31083847 -275.17998853 1234.71038309 -274.98892117 1174.42821693 C-274.99131858 1172.82504055 -274.99458858 1171.22186528 -274.99863777 1169.61869222 C-275.00717756 1165.25114215 -275.00346509 1160.88367911 -274.99758204 1156.51612791 C-274.99338379 1151.75000844 -275.00082942 1146.98390405 -275.00673455 1142.21778834 C-275.01547179 1133.87679962 -275.0168175 1125.53583545 -275.01323128 1117.19484329 C-275.00791235 1104.79094349 -275.01403155 1092.38706736 -275.02231421 1079.98317013 C-275.03753977 1056.53796876 -275.03926075 1033.0927782 -275.03679118 1009.64757292 C-275.03495716 991.53989114 -275.03672044 973.43221289 -275.04101562 955.32453156 C-275.04161803 952.72123003 -275.04221923 950.11792851 -275.04281923 947.51462699 C-275.0437265 943.59148857 -275.04463517 939.66835014 -275.04555158 935.74521172 C-275.05397903 899.27794876 -275.058337 862.81068758 -275.05414486 826.34342384 C-275.0540668 825.65651638 -275.05398875 824.96960892 -275.05390832 824.26188608 C-275.05303559 816.60278068 -275.05210632 808.94367529 -275.05115769 801.2845699 C-275.05107218 800.59311453 -275.05098667 799.90165916 -275.05089857 799.1892506 C-275.05018793 793.44510983 -275.05018793 793.44510983 -275.04985634 790.80039283 C-275.04432181 746.58244183 -275.05186081 702.36451171 -275.07062721 658.14656448 C-275.07534977 647.00540738 -275.08003043 635.86425026 -275.08446407 624.72309303 C-275.0847374 624.03700485 -275.08501072 623.35091667 -275.08529232 622.64403793 C-275.09366923 601.48381657 -275.09834381 580.32359695 -275.09917164 559.16337395 C-275.099198 558.49861677 -275.09922437 557.8338596 -275.09925154 557.14895827 C-275.0998167 541.89803873 -275.09930405 526.64711933 -275.09805173 511.39619982 C-275.09765639 506.17787274 -275.09729484 500.95954565 -275.09695435 495.74121857 C-275.09686361 494.45637748 -275.09677288 493.17153639 -275.0966794 491.84776072 C-275.09551461 472.47229336 -275.10215275 453.0968387 -275.11276627 433.72137451 C-275.12482856 411.67889979 -275.12636536 389.636453 -275.1139761 367.59397785 C-275.10735772 355.26800152 -275.10895499 342.942092 -275.12256461 330.61612104 C-275.13083263 322.36997451 -275.1280811 314.12387783 -275.11658935 305.87773531 C-275.1103562 301.18787861 -275.1086714 296.49815192 -275.12045268 291.80830292 C-275.18423021 264.52500125 -273.32438257 238.73158119 -266.73444557 212.13142776 C-266.41201881 210.82359329 -266.41201881 210.82359329 -266.08307838 209.48933792 C-257.16996621 174.1766267 -240.48492441 139.62390126 -217.73444557 111.13142776 C-216.73864479 109.84945511 -216.73864479 109.84945511 -215.72272682 108.54158401 C-211.67546131 103.3811217 -207.42181983 98.45471982 -202.99616432 93.61580276 C-201.54203443 92.01852019 -200.10543729 90.40500138 -198.69147682 88.77205276 C-188.00612476 76.50294308 -175.77830498 65.81336099 -162.73444557 56.13142776 C-162.09845436 55.65495804 -161.46246315 55.17848831 -160.80719948 54.68758011 C-121.26147257 25.24895338 -74.5720789 7.14526891 -25.73444557 1.13142776 C-25.09837996 1.04885316 -24.46231435 0.96627856 -23.80697403 0.8812017 C-15.8798187 -0.04030003 -7.96731253 -0.01009231 0 0 Z " fill="#4950BA" transform="translate(362.7344455718994,59.86857223510742)"/>
<path d="M0 0 C2.91823235 0.45178486 5.84004901 0.83881304 8.76855469 1.21777344 C34.20949295 4.69244172 59.94959997 11.08871331 83.87011719 20.44433594 C85.78147017 21.16596921 87.69293507 21.8873061 89.60449219 22.60839844 C110.25768467 30.52446831 131.17003117 39.72057656 150.04785156 51.32617188 C152.26525335 52.68679623 154.49813856 54.02078133 156.72949219 55.35839844 C182.37349413 70.85777914 205.75662818 89.27184283 227.87011719 109.44433594 C228.73378906 110.21519531 229.59746094 110.98605469 230.48730469 111.78027344 C237.07451876 117.71059082 243.40531215 123.87446652 249.68261719 130.13183594 C250.48304443 130.9276709 251.28347168 131.72350586 252.1081543 132.54345703 C256.35726208 136.80362904 260.44682588 141.14283089 264.37084961 145.7043457 C266.23850166 147.87186828 268.1789337 149.9676609 270.12011719 152.06933594 C275.21847447 157.72167431 279.87854472 163.67890456 284.5234375 169.70361328 C285.77279584 171.31853804 287.03574592 172.92292287 288.29980469 174.52636719 C321.56029228 217.0016456 346.84957647 266.28049637 360.87011719 318.44433594 C361.14952148 319.4655957 361.42892578 320.48685547 361.71679688 321.5390625 C369.06007961 348.75805706 374.00601638 377.54363431 374.03808594 405.79589844 C374.04141434 406.85304047 374.04474274 407.9101825 374.048172 408.99935913 C374.05320515 411.22971161 374.05558145 413.46007153 374.05541992 415.69042969 C374.05758002 419.01217998 374.07570171 422.33358284 374.09472656 425.65527344 C374.15257655 446.77895115 372.78018661 467.63007895 369.12011719 488.44433594 C368.98873352 489.20593018 368.85734985 489.96752441 368.72198486 490.75219727 C361.04753858 535.10670836 346.05612114 577.24958484 325.87011719 617.44433594 C325.46937988 618.24307129 325.06864258 619.04180664 324.65576172 619.86474609 C309.70454748 649.41042109 290.77788786 676.81956822 269.87011719 702.44433594 C269.15339844 703.33507812 268.43667969 704.22582031 267.69824219 705.14355469 C263.27003206 710.61773859 258.70917902 715.9268624 253.96777344 721.13183594 C252.17504273 723.10817966 250.42216492 725.10890324 248.68261719 727.13183594 C236.01016667 741.60315438 222.34280259 755.13803204 208.75988817 768.74392581 C205.79446222 771.71539566 202.83181139 774.68963068 199.86869812 777.66340637 C192.750013 784.80638098 185.62658535 791.94461626 178.50222987 799.08193469 C176.48890454 801.09898313 174.47570385 803.11615589 172.46254587 805.13337135 C159.93692074 817.68419641 147.40971124 830.23343777 134.87772942 842.77791595 C131.98943011 845.66914433 129.10114718 848.56038907 126.21289062 851.45166016 C125.4951375 852.17015933 124.77738437 852.88865851 124.03788115 853.62893039 C112.36436944 865.31514525 100.70119785 877.01162499 89.0421171 888.71223551 C77.0547479 900.74195293 65.0580387 912.7622916 53.05209458 924.77347136 C46.3176397 931.5113436 39.58743449 938.25334682 32.867733 945.00593567 C27.1583458 950.74322347 21.44065096 956.47206044 15.71167867 962.18979454 C12.78829651 965.10796875 9.86919241 968.03012055 6.96074867 970.96319008 C4.30216521 973.64409734 1.63246031 976.31336388 -1.04683374 978.97356862 C-2.47920313 980.40177042 -3.89917307 981.842374 -5.31876004 983.2832818 C-6.16455557 984.1185054 -7.01035111 984.95372899 -7.88177681 985.81426239 C-8.61084523 986.54468734 -9.33991366 987.2751123 -10.09107506 988.02767134 C-12.12988281 989.44433594 -12.12988281 989.44433594 -13.98493415 989.28160482 C-16.80905584 988.17922449 -18.34236936 986.60833861 -20.48786908 984.46469849 C-21.36003164 983.60055895 -22.23219419 982.7364194 -23.13078591 981.8460938 C-24.09616454 980.87446217 -25.06140566 979.9026939 -26.02652454 978.93080425 C-27.05752046 977.90354256 -28.08917207 976.8769386 -29.12142131 975.85093632 C-31.97391741 973.01185374 -34.81692577 970.16342937 -37.65855164 967.31347249 C-40.74489412 964.22134956 -43.83986496 961.13788396 -46.93376225 958.05332357 C-52.36086922 952.64016679 -57.7823227 947.22139826 -63.20016098 941.79896545 C-71.25643586 933.73587618 -79.32120527 925.68132391 -87.3876618 917.62842219 C-102.62932491 902.41171182 -117.86074004 887.18477095 -133.08898459 871.95463344 C-144.84428397 860.19796286 -156.60216921 848.44388422 -168.36189842 836.69164467 C-170.04928788 835.00530553 -171.73667599 833.31896503 -173.42406275 831.6326232 C-174.26162532 830.79557998 -175.09918788 829.95853676 -175.96213113 829.09612859 C-176.80119408 828.25758578 -177.64025704 827.41904297 -178.50474614 826.55508977 C-179.76539046 825.29523144 -179.76539046 825.29523144 -181.05150235 824.00992142 C-204.69971503 800.37629877 -228.34476792 776.73951858 -251.98338032 753.09629345 C-252.87512335 752.20437846 -253.76686638 751.31246348 -254.68563193 750.39352076 C-259.20570112 745.87256264 -263.72574236 741.35157658 -268.24577389 736.83058079 C-269.14352541 735.93263824 -270.04127692 735.03469569 -270.96623303 734.10954276 C-272.7817048 732.29368391 -274.59717494 730.47782343 -276.41264348 728.66196134 C-304.6728169 700.39581548 -332.94368047 672.14040068 -361.22290039 643.89331055 C-392.96781535 612.18443208 -424.70438847 580.46723773 -456.42881364 548.73785859 C-459.80816471 545.35803751 -463.18754567 541.97824631 -466.56694603 538.5984745 C-467.81515305 537.35011391 -467.81515305 537.35011391 -469.08857637 536.07653391 C-481.67685857 523.48705447 -494.27172577 510.90418797 -506.86992836 498.32463646 C-521.18815536 484.02759623 -535.49773535 469.72196779 -549.79565129 455.40461393 C-557.80639212 447.38350764 -565.82404849 439.36946008 -573.85160941 431.36518667 C-579.20370532 426.02724848 -584.54676935 420.68038515 -589.88238064 415.32596968 C-592.92886568 412.26926541 -595.97928047 409.21677101 -599.04067651 406.17499449 C-601.82023047 403.41309498 -604.58822535 400.64015542 -607.34706954 397.85757307 C-608.34610012 396.85405636 -609.34942918 395.85479809 -610.35729535 394.86015562 C-611.71583952 393.51824987 -613.05778691 392.15960168 -614.39864236 390.80002087 C-615.14910607 390.04966585 -615.89956978 389.29931083 -616.67277481 388.52621777 C-618.12988281 386.44433594 -618.12988281 386.44433594 -617.97046037 384.30283979 C-616.79321057 381.69995886 -615.14525684 380.08617475 -613.12483883 378.06735516 C-612.25693248 377.19285896 -611.38902613 376.31836276 -610.49481958 375.41736668 C-609.52084529 374.45126093 -608.54673189 373.4852954 -607.57249451 372.51945496 C-606.54549291 371.49042983 -605.51914923 370.46074773 -604.49340969 369.43046457 C-601.66744939 366.59583474 -598.83218248 363.77067492 -595.99534214 360.94693935 C-592.93933114 357.90180461 -589.89195996 354.84804553 -586.84352112 351.79533386 C-580.86672312 345.81289411 -574.88196605 339.8384774 -568.89455795 333.86665865 C-561.92168901 326.91131157 -554.9568687 319.94792834 -547.99242771 312.98414401 C-535.56180569 300.55521137 -523.12412884 288.13336271 -510.68237305 275.71557617 C-498.6134631 263.66990032 -486.54908594 251.61971018 -474.48999023 239.56420898 C-473.74802729 238.82246881 -473.00606434 238.08072863 -472.24161767 237.31651147 C-470.74688955 235.82222596 -469.25216173 234.32794016 -467.75743419 232.83365406 C-467.02006391 232.09650335 -466.28269362 231.35935263 -465.52297878 230.59986401 C-464.41969583 229.49690503 -464.41969583 229.49690503 -463.29412433 228.37166406 C-451.80072385 216.88196894 -440.30349669 205.39610349 -428.80574612 193.91076174 C-424.64080335 189.75024883 -420.47635537 185.58924141 -416.31225132 181.42788907 C-409.70238404 174.82246286 -403.09084176 168.21872263 -396.47593283 161.61834498 C-393.45404408 158.60304438 -390.43291337 155.58699537 -387.41392136 152.56879425 C-384.64684552 149.80250952 -381.87745387 147.03856492 -379.1062367 144.27642909 C-378.10729401 143.27997961 -377.10916929 142.28270924 -376.11197572 141.28450932 C-371.15359229 136.32209095 -366.16284496 131.46477678 -360.8288694 126.90547734 C-358.08159432 124.54279985 -355.45991448 122.04762128 -352.81738281 119.56933594 C-347.11504332 114.27059985 -341.20275561 109.31528599 -335.12988281 104.44433594 C-333.8785903 103.41465462 -332.62867936 102.38329294 -331.37988281 101.35058594 C-322.87446228 94.33319951 -314.23841934 87.66238358 -305.12988281 81.44433594 C-304.18741699 80.79835449 -303.24495117 80.15237305 -302.27392578 79.48681641 C-269.60560215 57.17441659 -234.18890873 35.08640938 -196.06347656 23.42871094 C-193.50060449 22.56873256 -191.04592734 21.60164165 -188.54785156 20.57324219 C-160.56347339 9.28616645 -128.95820605 3.29331372 -99.12988281 -0.55566406 C-98.24171875 -0.67280762 -97.35355469 -0.78995117 -96.43847656 -0.91064453 C-65.19946734 -4.78101515 -31.09907008 -4.86413306 0 0 Z " fill="#4950BA" transform="translate(913.1298828125,291.5556640625)"/>
<path d="M0 0 C2.91823235 0.45178486 5.84004901 0.83881304 8.76855469 1.21777344 C34.20949295 4.69244172 59.94959997 11.08871331 83.87011719 20.44433594 C85.78147017 21.16596921 87.69293507 21.8873061 89.60449219 22.60839844 C110.25768467 30.52446831 131.17003117 39.72057656 150.04785156 51.32617188 C152.26525335 52.68679623 154.49813856 54.02078133 156.72949219 55.35839844 C182.37349413 70.85777914 205.75662818 89.27184283 227.87011719 109.44433594 C228.73378906 110.21519531 229.59746094 110.98605469 230.48730469 111.78027344 C237.07451876 117.71059082 243.40531215 123.87446652 249.68261719 130.13183594 C250.48304443 130.9276709 251.28347168 131.72350586 252.1081543 132.54345703 C256.35726208 136.80362904 260.44682588 141.14283089 264.37084961 145.7043457 C266.23850166 147.87186828 268.1789337 149.9676609 270.12011719 152.06933594 C275.21847447 157.72167431 279.87854472 163.67890456 284.5234375 169.70361328 C285.77279584 171.31853804 287.03574592 172.92292287 288.29980469 174.52636719 C321.56029228 217.0016456 346.84957647 266.28049637 360.87011719 318.44433594 C361.14952148 319.4655957 361.42892578 320.48685547 361.71679688 321.5390625 C369.06007961 348.75805706 374.00601638 377.54363431 374.03808594 405.79589844 C374.04141434 406.85304047 374.04474274 407.9101825 374.048172 408.99935913 C374.05320515 411.22971161 374.05558145 413.46007153 374.05541992 415.69042969 C374.05758002 419.01217998 374.07570171 422.33358284 374.09472656 425.65527344 C374.15257655 446.77895115 372.78018661 467.63007895 369.12011719 488.44433594 C368.98873352 489.20593018 368.85734985 489.96752441 368.72198486 490.75219727 C361.04753858 535.10670836 346.05612114 577.24958484 325.87011719 617.44433594 C325.46937988 618.24307129 325.06864258 619.04180664 324.65576172 619.86474609 C309.70454748 649.41042109 290.77788786 676.81956822 269.87011719 702.44433594 C269.15339844 703.33507812 268.43667969 704.22582031 267.69824219 705.14355469 C263.27003206 710.61773859 258.70917902 715.9268624 253.96777344 721.13183594 C252.17504273 723.10817966 250.42216492 725.10890324 248.68261719 727.13183594 C236.01016667 741.60315438 222.34280259 755.13803204 208.75988817 768.74392581 C205.79446222 771.71539566 202.83181139 774.68963068 199.86869812 777.66340637 C192.750013 784.80638098 185.62658535 791.94461626 178.50222987 799.08193469 C176.48890454 801.09898313 174.47570385 803.11615589 172.46254587 805.13337135 C159.93692074 817.68419641 147.40971124 830.23343777 134.87772942 842.77791595 C131.98943011 845.66914433 129.10114718 848.56038907 126.21289062 851.45166016 C125.4951375 852.17015933 124.77738437 852.88865851 124.03788115 853.62893039 C112.36436944 865.31514525 100.70119785 877.01162499 89.0421171 888.71223551 C77.0547479 900.74195293 65.0580387 912.7622916 53.05209458 924.77347136 C46.3176397 931.5113436 39.58743449 938.25334682 32.867733 945.00593567 C27.1583458 950.74322347 21.44065096 956.47206044 15.71167867 962.18979454 C12.78829651 965.10796875 9.86919241 968.03012055 6.96074867 970.96319008 C4.30216521 973.64409734 1.63246031 976.31336388 -1.04683374 978.97356862 C-2.47920313 980.40177042 -3.89917307 981.842374 -5.31876004 983.2832818 C-6.16455557 984.1185054 -7.01035111 984.95372899 -7.88177681 985.81426239 C-8.61084523 986.54468734 -9.33991366 987.2751123 -10.09107506 988.02767134 C-12.12988281 989.44433594 -12.12988281 989.44433594 -13.98493415 989.28160482 C-16.80905584 988.17922449 -18.34236936 986.60833861 -20.48786908 984.46469849 C-21.36003164 983.60055895 -22.23219419 982.7364194 -23.13078591 981.8460938 C-24.09616454 980.87446217 -25.06140566 979.9026939 -26.02652454 978.93080425 C-27.05752046 977.90354256 -28.08917207 976.8769386 -29.12142131 975.85093632 C-31.97391741 973.01185374 -34.81692577 970.16342937 -37.65855164 967.31347249 C-40.74489412 964.22134956 -43.83986496 961.13788396 -46.93376225 958.05332357 C-52.36086922 952.64016679 -57.7823227 947.22139826 -63.20016098 941.79896545 C-71.25643586 933.73587618 -79.32120527 925.68132391 -87.3876618 917.62842219 C-102.62932491 902.41171182 -117.86074004 887.18477095 -133.08898459 871.95463344 C-144.84428397 860.19796286 -156.60216921 848.44388422 -168.36189842 836.69164467 C-170.04928788 835.00530553 -171.73667599 833.31896503 -173.42406275 831.6326232 C-174.26162532 830.79557998 -175.09918788 829.95853676 -175.96213113 829.09612859 C-176.80119408 828.25758578 -177.64025704 827.41904297 -178.50474614 826.55508977 C-179.76539046 825.29523144 -179.76539046 825.29523144 -181.05150235 824.00992142 C-204.69971503 800.37629877 -228.34476792 776.73951858 -251.98338032 753.09629345 C-252.87512335 752.20437846 -253.76686638 751.31246348 -254.68563193 750.39352076 C-259.20570112 745.87256264 -263.72574236 741.35157658 -268.24577389 736.83058079 C-269.14352541 735.93263824 -270.04127692 735.03469569 -270.96623303 734.10954276 C-272.7817048 732.29368391 -274.59717494 730.47782343 -276.41264348 728.66196134 C-304.6728169 700.39581548 -332.94368047 672.14040068 -361.22290039 643.89331055 C-392.96781535 612.18443208 -424.70438847 580.46723773 -456.42881364 548.73785859 C-459.80816471 545.35803751 -463.18754567 541.97824631 -466.56694603 538.5984745 C-467.81515305 537.35011391 -467.81515305 537.35011391 -469.08857637 536.07653391 C-481.67685857 523.48705447 -494.27172577 510.90418797 -506.86992836 498.32463646 C-521.18815536 484.02759623 -535.49773535 469.72196779 -549.79565129 455.40461393 C-557.80639212 447.38350764 -565.82404849 439.36946008 -573.85160941 431.36518667 C-579.20370532 426.02724848 -584.54676935 420.68038515 -589.88238064 415.32596968 C-592.92886568 412.26926541 -595.97928047 409.21677101 -599.04067651 406.17499449 C-601.82023047 403.41309498 -604.58822535 400.64015542 -607.34706954 397.85757307 C-608.34610012 396.85405636 -609.34942918 395.85479809 -610.35729535 394.86015562 C-611.71583952 393.51824987 -613.05778691 392.15960168 -614.39864236 390.80002087 C-615.14910607 390.04966585 -615.89956978 389.29931083 -616.67277481 388.52621777 C-618.12988281 386.44433594 -618.12988281 386.44433594 -617.97046037 384.30283979 C-616.79321057 381.69995886 -615.14525684 380.08617475 -613.12483883 378.06735516 C-612.25693248 377.19285896 -611.38902613 376.31836276 -610.49481958 375.41736668 C-609.52084529 374.45126093 -608.54673189 373.4852954 -607.57249451 372.51945496 C-606.54549291 371.49042983 -605.51914923 370.46074773 -604.49340969 369.43046457 C-601.66744939 366.59583474 -598.83218248 363.77067492 -595.99534214 360.94693935 C-592.93933114 357.90180461 -589.89195996 354.84804553 -586.84352112 351.79533386 C-580.86672312 345.81289411 -574.88196605 339.8384774 -568.89455795 333.86665865 C-561.92168901 326.91131157 -554.9568687 319.94792834 -547.99242771 312.98414401 C-535.56180569 300.55521137 -523.12412884 288.13336271 -510.68237305 275.71557617 C-498.6134631 263.66990032 -486.54908594 251.61971018 -474.48999023 239.56420898 C-473.74802729 238.82246881 -473.00606434 238.08072863 -472.24161767 237.31651147 C-470.74688955 235.82222596 -469.25216173 234.32794016 -467.75743419 232.83365406 C-467.02006391 232.09650335 -466.28269362 231.35935263 -465.52297878 230.59986401 C-464.41969583 229.49690503 -464.41969583 229.49690503 -463.29412433 228.37166406 C-451.80072385 216.88196894 -440.30349669 205.39610349 -428.80574612 193.91076174 C-424.64080335 189.75024883 -420.47635537 185.58924141 -416.31225132 181.42788907 C-409.70238404 174.82246286 -403.09084176 168.21872263 -396.47593283 161.61834498 C-393.45404408 158.60304438 -390.43291337 155.58699537 -387.41392136 152.56879425 C-384.64684552 149.80250952 -381.87745387 147.03856492 -379.1062367 144.27642909 C-378.10729401 143.27997961 -377.10916929 142.28270924 -376.11197572 141.28450932 C-371.15359229 136.32209095 -366.16284496 131.46477678 -360.8288694 126.90547734 C-358.08159432 124.54279985 -355.45991448 122.04762128 -352.81738281 119.56933594 C-347.11504332 114.27059985 -341.20275561 109.31528599 -335.12988281 104.44433594 C-333.8785903 103.41465462 -332.62867936 102.38329294 -331.37988281 101.35058594 C-322.87446228 94.33319951 -314.23841934 87.66238358 -305.12988281 81.44433594 C-304.18741699 80.79835449 -303.24495117 80.15237305 -302.27392578 79.48681641 C-269.60560215 57.17441659 -234.18890873 35.08640938 -196.06347656 23.42871094 C-193.50060449 22.56873256 -191.04592734 21.60164165 -188.54785156 20.57324219 C-160.56347339 9.28616645 -128.95820605 3.29331372 -99.12988281 -0.55566406 C-98.24171875 -0.67280762 -97.35355469 -0.78995117 -96.43847656 -0.91064453 C-65.19946734 -4.78101515 -31.09907008 -4.86413306 0 0 Z M-131.52685547 65.82080078 C-134.11000865 66.43957523 -136.69987243 67.00474044 -139.29785156 67.55761719 C-181.26731487 76.68279897 -221.09164703 95.4017746 -257.12988281 118.44433594 C-258.08386963 119.05317627 -258.08386963 119.05317627 -259.05712891 119.67431641 C-262.46327083 121.86348356 -265.80922828 124.12793071 -269.12988281 126.44433594 C-269.66307129 126.81445801 -270.19625977 127.18458008 -270.74560547 127.56591797 C-279.80034156 133.86945686 -288.52854888 140.53760099 -297.12988281 147.44433594 C-298.05285156 148.18296875 -298.97582031 148.92160156 -299.92675781 149.68261719 C-305.32510954 154.05081008 -310.61800626 158.53843743 -315.87988281 163.06933594 C-316.49404053 163.59575684 -317.10819824 164.12217773 -317.7409668 164.66455078 C-321.39724777 167.83230884 -324.84263589 171.13478875 -328.23320246 174.58402056 C-330.04007143 176.3562465 -331.90180301 178.00522481 -333.82637787 179.64785862 C-338.2485744 183.49570729 -342.397326 187.57523121 -346.53283691 191.72703552 C-347.34004858 192.53339276 -348.14726024 193.33975 -348.97893286 194.1705423 C-351.66509104 196.85506214 -354.34767527 199.54312423 -357.03027344 202.23120117 C-358.96196958 204.16373761 -360.89442204 206.09551713 -362.82684326 208.02732849 C-366.97757283 212.17753542 -371.12647736 216.32955949 -375.27412415 220.48284721 C-381.27082082 226.48769425 -387.27029904 232.48975594 -393.27044505 238.49115611 C-403.0068 248.22969603 -412.74092282 257.97046388 -422.47363281 267.71264648 C-431.92427935 277.1724815 -441.37598266 286.63125861 -450.82910156 296.08862305 C-451.70412558 296.96404115 -451.70412558 296.96404115 -452.59682685 297.85714447 C-455.5235225 300.78514522 -458.45023887 303.71312528 -461.37696552 306.64109504 C-485.63114906 330.90563392 -509.88170618 355.17379424 -534.12988281 379.44433594 C-532.71309985 382.66018859 -531.01359772 384.81020595 -528.53440654 387.2882092 C-527.40529899 388.42405863 -527.40529899 388.42405863 -526.25338119 389.58285451 C-525.4211669 390.40981477 -524.58895261 391.23677504 -523.7315197 392.08879471 C-522.40606157 393.41771437 -522.40606157 393.41771437 -521.05382651 394.77348089 C-518.58940001 397.24405983 -516.11875006 399.70833325 -513.6470843 402.17166683 C-510.96364126 404.84825434 -508.28599338 407.5306285 -505.6076194 410.21228671 C-500.90886631 414.91519261 -496.20639847 419.61435849 -491.50150681 424.31112289 C-484.50548198 431.2950962 -477.51518001 438.28477636 -470.52605748 445.2756562 C-458.77007382 457.03427011 -447.00943337 468.788216 -435.24615097 480.53952789 C-423.59551211 492.17834119 -411.94693606 503.81921263 -400.30112076 515.46285248 C-399.21581745 516.54794957 -399.21581745 516.54794957 -398.10858882 517.65496781 C-394.43427393 521.32860606 -390.75999597 525.00228124 -387.08573224 528.67597064 C-361.04666684 554.71083287 -335.00296546 580.741053 -308.95654297 606.76855469 C-283.64951031 632.05722483 -258.34457458 657.34799022 -233.04248047 682.64160156 C-232.26284634 683.42097264 -231.4832122 684.20034373 -230.67995279 685.00333211 C-222.8506984 692.82994951 -215.02148668 700.65660959 -207.19230623 708.48330096 C-191.24271943 724.42781504 -175.29284779 740.37204418 -159.34280396 756.31610107 C-158.60941332 757.04921713 -157.87602268 757.78233319 -157.12040808 758.53766489 C-108.12833684 807.51132829 -59.12962563 856.47834834 -10.12988281 905.44433594 C-7.05967093 903.97416765 -4.93257887 902.49678804 -2.51815319 900.08149529 C-1.81434338 899.38228427 -1.11053357 898.68307325 -0.38539618 897.96267402 C0.38025822 897.19187606 1.14591262 896.42107809 1.93476868 895.62692261 C3.16367782 894.40163509 3.16367782 894.40163509 4.41741341 893.15159428 C6.69022406 890.88344813 8.95848687 888.61086446 11.22490728 886.33633614 C13.67060949 883.88405773 16.12206863 881.43754624 18.57281494 878.99031067 C23.37410035 874.19406946 28.17002271 869.39249963 32.96416036 864.58911495 C38.55010329 858.99278601 44.14127165 853.40168995 49.73265269 847.8107952 C59.71382599 837.83012272 69.69015827 827.84462523 79.66381836 817.85644531 C89.33403057 808.17216237 99.00772072 798.49137145 108.68530273 788.81445312 C109.57836883 787.92144697 109.57836883 787.92144697 110.48947666 787.01040028 C111.08383859 786.4160787 111.67820052 785.82175713 112.29057342 785.20942581 C123.31314838 774.18754185 134.3324248 763.16236534 145.35018123 752.13566478 C149.24200033 748.24083551 153.13478963 744.34697753 157.02788734 740.45342636 C161.77857009 735.70205938 166.52734326 730.94879288 171.27378837 726.19319253 C173.69364719 723.76873546 176.11426243 721.34504762 178.53705406 718.92352104 C181.16852994 716.2925378 183.79690055 713.65849029 186.42451477 711.02365112 C187.18347701 710.26623749 187.94243925 709.50882385 188.72440034 708.72845829 C192.76190969 704.67265477 196.63520882 700.52884477 200.36493939 696.18759549 C202.5933804 693.60667044 204.92099507 691.12695202 207.24511719 688.63183594 C212.35754225 683.08399525 217.18131091 677.35695015 221.87011719 671.44433594 C222.6097168 670.52152832 222.6097168 670.52152832 223.36425781 669.58007812 C252.46784395 633.20939339 275.86334132 593.23298716 291.87011719 549.44433594 C292.37803338 548.08841768 292.88716486 546.73295408 293.39746094 545.37792969 C298.79357092 530.98946128 302.54658299 516.44125742 305.87011719 501.44433594 C306.10263184 500.40341797 306.33514648 499.3625 306.57470703 498.29003906 C316.76873168 451.79302755 316.32365589 404.03944568 306.87011719 357.44433594 C306.66032227 356.37795898 306.66032227 356.37795898 306.44628906 355.29003906 C301.8051717 332.12929398 293.77593852 309.71144485 284.11328125 288.21533203 C283.0376063 285.81766694 281.9913956 283.41035421 280.95605469 280.99511719 C269.7200748 255.36323132 253.28530314 231.23519675 235.87011719 209.44433594 C235.11085938 208.49171875 234.35160156 207.53910156 233.56933594 206.55761719 C229.2699761 201.23353946 224.82328433 196.07701494 220.20605469 191.02636719 C218.95197355 189.64016714 217.70356526 188.24811963 216.49389648 186.82299805 C211.19754448 180.61176981 205.45164177 174.87428973 199.6730957 169.11694336 C197.93618119 167.38538894 196.2046783 165.64855235 194.47363281 163.91113281 C188.77672895 158.21014383 183.05420005 152.62207635 176.87011719 147.44433594 C176.23887939 146.90639404 175.6076416 146.36845215 174.95727539 145.81420898 C147.65960624 122.64273342 117.83651672 103.64566405 85.36230469 88.60449219 C83.27210085 87.63146626 81.19324974 86.64051254 79.12011719 85.63183594 C65.59417082 79.13938168 51.20164492 74.78054176 36.87011719 70.44433594 C35.21689453 69.92033203 35.21689453 69.92033203 33.53027344 69.38574219 C23.67743444 66.37482706 13.66306061 64.64051888 3.52099609 62.90576172 C1.13657473 62.49071692 -1.24106274 62.05148087 -3.61816406 61.59667969 C-45.34191269 53.66463067 -90.31649822 55.80770571 -131.52685547 65.82080078 Z " fill="#FEFEFE" transform="translate(913.1298828125,291.5556640625)"/>
<path d="M0 0 C3.3755006 0.01712572 6.75029282 0.00688449 10.12576962 -0.01032543 C67.03535244 -0.25583826 122.45287129 14.32967104 167.41992188 50.39111328 C168.41636719 51.18388672 169.4128125 51.97666016 170.43945312 52.79345703 C184.7172734 64.38807772 197.57322037 77.54151327 208.41992188 92.39111328 C209.27798339 93.54216345 210.13605639 94.69320506 210.99414062 95.84423828 C218.63049878 106.2081786 225.04462472 117.22562476 231.41992188 128.39111328 C231.41770126 127.1178569 231.41548065 125.84460052 231.41319275 124.53276062 C231.3928058 112.45672522 231.37787546 100.38069337 231.3681097 88.30464458 C231.36292006 82.09818993 231.35589473 75.89174931 231.34448242 69.68530273 C231.33351285 63.68116432 231.32761563 57.67703929 231.32504463 51.67289162 C231.32321548 49.39711102 231.31964446 47.12133105 231.31419182 44.84555626 C231.30679376 41.62594467 231.30593865 38.40638647 231.30639648 35.18676758 C231.30280121 34.27325027 231.29920593 33.35973297 231.29550171 32.41853333 C231.30969271 23.02845709 231.92393901 13.81478781 232.41992188 4.39111328 C249.24992187 4.39111328 266.07992187 4.39111328 283.41992188 4.39111328 C283.47070264 54.21022983 283.51909394 104.02934511 283.54695129 153.84848022 C283.54736547 154.5872702 283.54777964 155.32606017 283.54820636 156.08723772 C283.55718766 172.14789476 283.56549784 188.20855209 283.57311786 204.26920984 C283.57685947 212.14675844 283.58074919 220.02430697 283.5847168 227.90185547 C283.58510907 228.6857148 283.58550135 229.46957412 283.58590552 230.27718676 C283.59866143 255.62795775 283.62117419 280.97870851 283.64881354 306.32946727 C283.67719379 332.40750634 283.69559725 358.48553424 283.70166685 384.56358848 C283.70253115 388.25735181 283.70350806 391.95111511 283.7045536 395.64487839 C283.70475587 396.371776 283.70495814 397.09867361 283.70516654 397.84759843 C283.70869471 409.49063939 283.7225626 421.13364555 283.74041798 432.77667239 C283.75819748 444.51697362 283.76455592 456.25723776 283.76042601 467.99755193 C283.758517 474.34444337 283.76130619 480.69123375 283.7775383 487.03810692 C283.96800882 565.51280254 273.5725164 644.52943864 216.23242188 702.95361328 C204.93062804 714.24534095 192.33270757 723.53549309 178.41992188 731.39111328 C177.74687012 731.77477051 177.07381836 732.15842773 176.38037109 732.55371094 C137.81084861 754.31861929 93.33331949 763.70071379 49.41992188 766.39111328 C48.63472168 766.44605957 47.84952148 766.50100586 47.04052734 766.55761719 C-45.96786147 773.04123714 -152.62124906 753.07357593 -225.24902344 690.96386719 C-235.38568536 682.14699287 -235.38568536 682.14699287 -237.58007812 677.39111328 C-237.08362793 676.70674194 -237.08362793 676.70674194 -236.57714844 676.00854492 C-229.80897709 666.67261415 -223.07870089 657.31286454 -216.45214844 647.87573242 C-214.20555269 644.67880335 -211.9529278 641.49652058 -209.58007812 638.39111328 C-205.67307808 639.72072062 -203.32457464 641.32502289 -200.39257812 644.20361328 C-153.95737996 687.00355959 -87.85309266 707.90898252 -26.58007812 716.39111328 C-25.6198877 716.52533691 -24.65969727 716.65956055 -23.67041016 716.79785156 C12.61490622 721.61017388 50.98921398 719.0992936 86.41992188 710.39111328 C87.30550781 710.17616211 88.19109375 709.96121094 89.10351562 709.73974609 C119.64906435 702.14874606 148.64026762 688.11586305 172.41992188 667.39111328 C173.39574219 666.54935547 174.3715625 665.70759766 175.37695312 664.84033203 C209.56745005 634.79780528 226.21488368 591.38088258 230.04492188 546.76611328 C230.4042862 541.0355357 230.52170977 535.31863465 230.54492188 529.57861328 C230.54959473 528.82177246 230.55426758 528.06493164 230.55908203 527.28515625 C230.54703092 522.82161045 230.36892035 518.38950312 230.0686636 513.93573666 C229.34676742 503.046838 229.20108355 492.17169447 229.10351562 481.26220703 C229.08288169 479.29109832 229.06188388 477.31999339 229.0405426 475.34889221 C228.98598532 470.22155873 228.93629048 465.09418987 228.88769531 459.96679688 C228.83698806 454.71041812 228.78156197 449.4540892 228.7265625 444.19775391 C228.61979557 433.92891651 228.51817828 423.66003539 228.41992188 413.39111328 C227.76258057 414.52693848 227.10523926 415.66276367 226.42797852 416.83300781 C225.54136802 418.35509095 224.65455713 419.87705737 223.76757812 421.39892578 C223.33723267 422.14376221 222.90688721 422.88859863 222.46350098 423.65600586 C208.36755722 447.78490634 188.56382312 470.35057471 166.41992188 487.39111328 C165.88061035 487.81215332 165.34129883 488.23319336 164.78564453 488.66699219 C154.5688001 496.60569769 143.76858591 503.19805477 132.41992188 509.39111328 C131.75412109 509.75833496 131.08832031 510.12555664 130.40234375 510.50390625 C97.14819277 528.657262 57.86305769 537.43986779 20.11523438 537.59423828 C18.96588913 537.60129791 17.81654388 537.60835754 16.63237 537.6156311 C-60.8193878 537.98329374 -134.08371494 522.64397046 -191.58007812 467.39111328 C-192.1746582 466.82376465 -192.76923828 466.25641602 -193.38183594 465.671875 C-202.27938492 457.13913012 -210.27751907 448.32035097 -217.58007812 438.39111328 C-218.00627441 437.82038086 -218.4324707 437.24964844 -218.87158203 436.66162109 C-225.38564371 427.92198329 -231.21492771 418.87735423 -236.58007812 409.39111328 C-236.97694824 408.69453613 -237.37381836 407.99795898 -237.78271484 407.28027344 C-257.20516853 372.84991028 -268.40007279 333.73177807 -271.58007812 294.39111328 C-271.6909375 293.08658203 -271.80179688 291.78205078 -271.91601562 290.43798828 C-277.17881156 219.03464886 -257.20761555 144.56760023 -210.58007812 89.39111328 C-207.02137875 85.28076142 -203.34814919 81.30765141 -199.58007812 77.39111328 C-198.9803418 76.76414551 -198.38060547 76.13717773 -197.76269531 75.49121094 C-188.93470232 66.31000937 -179.95610133 57.7946008 -169.58007812 50.39111328 C-168.83725586 49.85808594 -168.09443359 49.32505859 -167.32910156 48.77587891 C-147.31565714 34.56965409 -125.86152536 23.20474968 -102.58007812 15.39111328 C-101.67612305 15.0847998 -100.77216797 14.77848633 -99.84082031 14.46289062 C-67.33514021 3.60687782 -34.16362444 -0.17472919 0 0 Z M-37.58007812 50.39111328 C-38.87751953 50.57649658 -38.87751953 50.57649658 -40.20117188 50.765625 C-80.365566 56.70816897 -117.70473833 72.71060058 -147.54492188 100.50830078 C-149.23917375 102.07572766 -150.95706873 103.52600535 -152.76757812 104.95361328 C-156.438639 108.13519937 -159.45507441 111.68211284 -162.58007812 115.39111328 C-163.32128906 116.23287109 -164.0625 117.07462891 -164.82617188 117.94189453 C-203.63376857 162.83452239 -221.06156351 224.83729314 -217.07299805 283.57250977 C-213.04728907 336.49743349 -194.60478481 387.52909033 -157.58007812 426.39111328 C-157.03722168 426.96120117 -156.49436523 427.53128906 -155.93505859 428.11865234 C-116.59279638 469.16121891 -62.69133897 488.22008071 -6.48852539 489.50292969 C-2.35234084 489.57149571 1.78324007 489.58500107 5.91992188 489.57861328 C6.65359985 489.57800903 7.38727783 489.57740479 8.14318848 489.57678223 C67.27934449 489.44571663 121.10545263 472.6895353 164.41992188 431.39111328 C165.58974609 430.30056641 165.58974609 430.30056641 166.78320312 429.18798828 C200.79385376 396.56676032 218.67070843 349.8817362 226.41992188 304.39111328 C226.5654248 303.54242676 226.71092773 302.69374023 226.86083984 301.81933594 C236.17886154 243.94365539 221.14822176 179.94863603 187.54492188 132.20361328 C155.15015645 87.46677305 108.35062024 60.26690896 54.16015625 51.00488281 C49.92417718 50.33188614 45.68879974 49.80106815 41.41992188 49.39111328 C40.14991333 49.26192505 40.14991333 49.26192505 38.85424805 49.13012695 C28.24135586 48.16796679 17.62949129 48.19154912 6.98242188 48.20361328 C5.51068512 48.20451965 5.51068512 48.20451965 4.00921631 48.20544434 C-9.93445877 48.22879819 -23.76129453 48.33582366 -37.58007812 50.39111328 Z " fill="#FFFFFF" transform="translate(3293.580078125,627.60888671875)"/>
<path d="M0 0 C0.67861084 0.10465576 1.35722168 0.20931152 2.05639648 0.31713867 C52.95431948 8.20757552 103.3610367 22.16949647 149.16455078 46.04541016 C151.00872508 47.00453779 152.861208 47.94603145 154.71484375 48.88671875 C175.36269862 59.48703479 195.12360446 73.06118199 212 89 C213.26661866 90.08825807 214.53740846 91.17168185 215.8125 92.25 C225.45828054 100.6851765 234.08570904 109.93143293 242 120 C242.60585937 120.71542969 243.21171875 121.43085937 243.8359375 122.16796875 C255.73515656 136.35163704 265.54486087 152.5668033 274 169 C274.40669922 169.78745605 274.81339844 170.57491211 275.23242188 171.38623047 C295.45638709 211.02173173 306.08662605 254.94618947 311 299 C311.14646973 300.30179199 311.14646973 300.30179199 311.29589844 301.62988281 C321.0857717 391.38686902 302.31148545 491.93829174 245.52734375 563.8828125 C244.68640748 564.92309879 243.8439411 565.96214992 243 567 C242.57348145 567.52948242 242.14696289 568.05896484 241.70751953 568.60449219 C229.7329554 583.36475977 216.20801285 597.55655855 201 609 C199.7924374 609.93551245 198.58544939 610.87176685 197.37890625 611.80859375 C124.16559537 668.1872924 30.18017635 687.60922014 -97 698.125 C-98.28922363 698.20073242 -99.57844727 698.27646484 -100.90673828 698.35449219 C-127.70390659 699.83351105 -154.5661276 700.20455233 -181.399189 700.18867874 C-183.6775756 700.18747216 -185.95595772 700.18804353 -188.23434448 700.18869019 C-224.57524661 700.18649829 -260.89541181 699.27769787 -297.21831131 698.19897175 C-301.8193459 698.06256182 -306.42050786 697.9328951 -311.02188587 697.80861378 C-314.01378398 697.72713149 -317.00557096 697.64200093 -319.99734306 697.55602837 C-321.39709849 697.5165257 -322.79689599 697.47848256 -324.19673347 697.44200325 C-326.11230597 697.39178791 -328.02771828 697.3355688 -329.94311523 697.27905273 C-331.560438 697.23420998 -331.560438 697.23420998 -333.21043396 697.1884613 C-336 697 -336 697 -340 696 C-340 463.68 -340 231.36 -340 -8 C-325.36841839 -9.12550628 -325.36841839 -9.12550628 -320.26928711 -9.28125 C-318.5237429 -9.33639519 -318.5237429 -9.33639519 -316.74293518 -9.39265442 C-315.51679001 -9.42807846 -314.29064484 -9.4635025 -313.02734375 -9.5 C-311.68663573 -9.54063229 -310.34593253 -9.58142383 -309.00523376 -9.62236023 C-304.64947557 -9.75375886 -300.29351458 -9.87743938 -295.9375 -10 C-295.18437782 -10.02136143 -294.43125565 -10.04272285 -293.65531158 -10.0647316 C-215.70661836 -12.27274436 -137.59878966 -13.7850446 0 0 Z M-261.34765625 37.46484375 C-262.82622101 37.52275337 -262.82622101 37.52275337 -264.33465576 37.58183289 C-271.90975644 37.90278224 -279.42799584 38.45914256 -287 39 C-287 240.3 -287 441.6 -287 649 C-280.80835187 649.80494028 -280.80835187 649.80494028 -274.63330078 650.29711914 C-273.45939789 650.35703789 -273.45939789 650.35703789 -272.26177979 650.41816711 C-271.41484558 650.45677353 -270.56791138 650.49537994 -269.6953125 650.53515625 C-268.75266541 650.57831467 -267.81001831 650.62147308 -266.83880615 650.66593933 C-235.36180672 652.03857934 -203.89134897 652.22230974 -172.38838959 652.24631882 C-168.91974313 652.24995312 -165.45112139 652.25725103 -161.98248291 652.26541138 C-127.14022054 652.33729034 -92.44217915 651.6740729 -57.75 648.1875 C-56.89398193 648.10351959 -56.03796387 648.01953918 -55.15600586 647.93301392 C2.58479673 642.23525528 60.64646374 630.85156244 113 605 C113.90153809 604.56075195 114.80307617 604.12150391 115.73193359 603.66894531 C140.30844977 591.6152386 162.31095874 575.95846459 182 557 C182.52368164 556.49823242 183.04736328 555.99646484 183.58691406 555.47949219 C190.6021044 548.72492811 197.0760936 541.75036368 203 534 C203.47518066 533.38479492 203.95036133 532.76958984 204.43994141 532.13574219 C236.86079627 489.86900804 252.26546265 439.24317346 259 387 C259.11859375 386.10055664 259.2371875 385.20111328 259.359375 384.27441406 C269.33564128 304.90965289 251.6880584 217.89746747 202.6640625 153.953125 C196.81041132 146.64134411 190.43400843 139.79927867 184 133 C183.36191406 132.319375 182.72382813 131.63875 182.06640625 130.9375 C177.11698822 125.81004535 171.56189256 121.43956941 166 117 C164.94848966 116.13500011 163.8977252 115.26909285 162.84765625 114.40234375 C100.92826196 63.83284881 17.20607011 47.11438205 -60.5 39.8125 C-61.31596649 39.73359528 -62.13193298 39.65469055 -62.97262573 39.57339478 C-96.73898672 36.35854456 -130.67701474 35.64137472 -164.57429886 35.74265671 C-167.3671523 35.75014657 -170.15998837 35.75372402 -172.95285034 35.75637817 C-202.43907684 35.79004262 -231.88375733 36.30580923 -261.34765625 37.46484375 Z " fill="#FFFFFF" transform="translate(2331,461)"/>
<path d="M0 0 C2.69606585 0.01606646 5.39178757 0.00588094 8.08786392 -0.00372696 C71.09026669 -0.182752 130.51653032 18.28367248 177.3302002 61.44952393 C178.1861377 62.20233643 179.0420752 62.95514893 179.9239502 63.73077393 C185.1683767 68.34334182 189.8703981 73.08248157 194.3302002 78.44952393 C195.06625488 79.29772705 195.80230957 80.14593018 196.56066895 81.01983643 C229.87456156 119.89487169 249.98226707 169.0260338 257.3302002 219.44952393 C257.47973145 220.45515381 257.6292627 221.46078369 257.7833252 222.49688721 C268.581381 298.16472867 252.14092448 379.25032198 206.1427002 441.01202393 C201.51352232 447.12047566 196.55456372 452.84116463 191.3302002 458.44952393 C190.11681801 459.84097059 188.90822217 461.23661032 187.7052002 462.63702393 C181.19522888 470.06849803 174.06964617 476.3103015 166.3302002 482.44952393 C164.82779785 483.65995361 164.82779785 483.65995361 163.29504395 484.89483643 C107.0150957 529.71067738 32.55747436 540.15706572 -37.32897949 532.85626221 C-75.78481884 528.17433964 -112.90677858 514.18677236 -143.6697998 490.44952393 C-144.49471924 489.81723877 -144.49471924 489.81723877 -145.33630371 489.17218018 C-162.29025093 475.98402117 -177.37628316 460.02408885 -189.6697998 442.44952393 C-190.1146875 441.82271729 -190.5595752 441.19591064 -191.01794434 440.55010986 C-196.14939406 433.2816701 -200.68885593 425.77435567 -204.97058105 417.97686768 C-205.42582153 417.15247192 -205.88106201 416.32807617 -206.35009766 415.47869873 C-207.45883591 413.47015715 -208.56535666 411.46042944 -209.6697998 409.44952393 C-209.65727173 410.72466858 -209.64474365 411.99981323 -209.63183594 413.31359863 C-209.51146151 425.60007436 -209.39385106 437.88657418 -209.27864838 450.17309952 C-209.21940504 456.48286497 -209.15933404 462.79261977 -209.0970459 469.10235596 C-208.52344933 527.37213748 -208.7054716 585.62351596 -209.11518145 643.89304566 C-209.17708399 652.70652399 -209.23687689 661.52001632 -209.29655743 670.33350992 C-209.41875031 688.37219707 -209.54366471 706.41086388 -209.6697998 724.44952393 C-226.4997998 724.44952393 -243.3297998 724.44952393 -260.6697998 724.44952393 C-260.6697998 486.84952393 -260.6697998 249.24952393 -260.6697998 4.44952393 C-244.4997998 4.44952393 -228.3297998 4.44952393 -211.6697998 4.44952393 C-211.3397998 44.70952393 -211.0097998 84.96952393 -210.6697998 126.44952393 C-207.0397998 119.84952393 -203.4097998 113.24952393 -199.6697998 106.44952393 C-197.06539445 102.34561245 -194.49436464 98.38353707 -191.6697998 94.44952393 C-190.97499512 93.48143799 -190.28019043 92.51335205 -189.56433105 91.51593018 C-174.62651073 71.18463136 -157.39056165 52.94679042 -136.6697998 38.44952393 C-136.08843262 38.03944092 -135.50706543 37.62935791 -134.90808105 37.20684814 C-94.75017784 9.22970753 -48.26816276 -0.40806065 0 0 Z M-139.14685059 94.95733643 C-140.80656186 96.58352356 -142.48638991 98.1875493 -144.16589355 99.79327393 C-166.61144325 121.48519069 -181.86261711 148.35946671 -192.6697998 177.44952393 C-193.13128418 178.67800049 -193.59276855 179.90647705 -194.0682373 181.17218018 C-203.69823406 208.37538758 -207.89510676 237.23792936 -207.9197998 266.01202393 C-207.92047455 266.72784637 -207.92114929 267.44366882 -207.92184448 268.18118286 C-207.84234166 321.88125295 -192.1760417 379.08036863 -156.6697998 420.44952393 C-155.60245605 421.70829346 -155.60245605 421.70829346 -154.5135498 422.99249268 C-152.28857477 425.53710032 -149.99662273 427.99760299 -147.6697998 430.44952393 C-146.8975708 431.27855225 -146.8975708 431.27855225 -146.10974121 432.12432861 C-115.5066118 464.80864645 -70.83455421 485.74266089 -25.85670471 487.56340027 C-22.66133889 487.63035578 -19.46736328 487.66664391 -16.2713623 487.68780518 C-15.08295746 487.69587692 -13.89455261 487.70394867 -12.6701355 487.71226501 C-10.15376212 487.72605193 -7.63737046 487.73679801 -5.12097168 487.74468994 C-2.60235935 487.75610019 -0.08376902 487.77637301 2.43469238 487.80621338 C35.7380383 488.19954268 67.29854665 483.32712361 97.3302002 468.44952393 C97.97215332 468.13934326 98.61410645 467.8291626 99.2755127 467.50958252 C113.855778 460.41820348 127.02432429 451.14097939 138.71691895 439.92218018 C140.60004399 438.14038921 142.46759218 436.48222119 144.46691895 434.84405518 C148.23102677 431.69617237 151.20084858 428.21525489 154.3302002 424.44952393 C154.96055176 423.71161621 154.96055176 423.71161621 155.6036377 422.95880127 C182.52156903 391.37395457 198.54374858 352.14715765 205.3302002 311.44952393 C205.49101074 310.55862061 205.65182129 309.66771729 205.81750488 308.74981689 C210.78869283 280.6292929 210.30368039 249.5212814 205.3302002 221.44952393 C205.1745459 220.53283936 205.0188916 219.61615479 204.85852051 218.67169189 C197.7266693 178.02298704 180.37582314 139.64532593 153.3302002 108.44952393 C152.86307617 107.90795654 152.39595215 107.36638916 151.91467285 106.80841064 C146.75995201 100.87216158 141.43077136 95.40493668 135.3302002 90.44952393 C134.34793457 89.62968018 133.36566895 88.80983643 132.3536377 87.96514893 C109.64910034 69.32085097 83.35135558 57.08412402 54.7677002 50.69952393 C53.88308105 50.50068604 52.99846191 50.30184814 52.08703613 50.09698486 C35.95594465 46.69328369 20.05461315 46.10250907 3.61218262 46.1338501 C0.16565055 46.13700293 -3.28001411 46.11348842 -6.72644043 46.0881958 C-55.23296772 45.94912656 -103.85090046 60.342683 -139.14685059 94.95733643 Z " fill="#FFFFFF" transform="translate(6527.6697998046875,627.5504760742188)"/>
<path d="M0 0 C1.53213135 0.32145996 1.53213135 0.32145996 3.09521484 0.64941406 C49.235812 10.62222836 90.85261945 33.81169414 125.44921875 65.66796875 C127.60075151 67.63499028 129.78291973 69.54553129 132 71.4375 C139.93920122 78.34965876 147.18971189 85.98545363 154 94 C154.88952965 95.01528364 155.78025986 96.02951608 156.671875 97.04296875 C174.98813329 117.97626658 174.98813329 117.97626658 179 126 C179.33 86.07 179.66 46.14 180 5 C197.16 5 214.32 5 232 5 C232.01695676 49.60407941 232.03308532 94.20815883 232.04234314 138.8122406 C232.0424812 139.47568253 232.04261925 140.13912446 232.04276149 140.8226707 C232.04575657 155.25183627 232.04852644 169.68100188 232.05106533 184.11016754 C232.05231233 191.18941183 232.05360893 198.26865611 232.05493164 205.34790039 C232.05512778 206.40443045 232.05512778 206.40443045 232.05532788 207.48230455 C232.05956559 230.18472929 232.06705886 252.88715149 232.07629722 275.5895747 C232.08579797 298.98006941 232.09190104 322.37056272 232.09391499 345.76105933 C232.09510582 359.51790454 232.09790567 373.27474442 232.10573006 387.0315876 C232.15798805 481.87090074 232.15798805 481.87090074 231.55639648 515.21850586 C231.53692463 516.34334542 231.51745278 517.46818499 231.49739087 518.6271106 C231.4427807 521.62590689 231.38034735 524.62437596 231.31297302 527.62290955 C231.28836189 528.88957224 231.28836189 528.88957224 231.26325357 530.18182409 C231.11759783 535.76480434 231.11759783 535.76480434 230 538 C212.18 538 194.36 538 176 538 C176.33 530.74 176.66 523.48 177 516 C177.07280351 512.099945 177.12989653 508.22046011 177.11352539 504.32275391 C177.11374443 502.85489944 177.11374443 502.85489944 177.1139679 501.35739136 C177.1132899 498.23042303 177.10560092 495.10351995 177.09765625 491.9765625 C177.09578449 489.76598137 177.09436419 487.55539981 177.09336853 485.34481812 C177.08960289 479.60759273 177.07982567 473.87039384 177.06866455 468.13317871 C177.05832024 462.24634153 177.05384341 456.35949995 177.04882812 450.47265625 C177.03819622 438.98175938 177.02119415 427.49088192 177 416 C176.52351013 416.82242691 176.04702026 417.64485382 175.55609131 418.49220276 C174.92882141 419.57186813 174.30155151 420.65153351 173.65527344 421.76391602 C173.03440857 422.83384293 172.4135437 423.90376984 171.77386475 425.00611877 C163.74672549 438.55410858 153.39107112 451.15279965 142 462 C141.195625 462.804375 140.39125 463.60875 139.5625 464.4375 C138.716875 465.283125 137.87125 466.12875 137 467 C136.4740625 467.56074219 135.948125 468.12148437 135.40625 468.69921875 C98.05463011 507.71266919 40.28385374 528.85269685 -12 536 C-13.27915283 536.17732666 -14.55830566 536.35465332 -15.8762207 536.53735352 C-28.27056291 538.14351491 -40.57719047 538.35815447 -53.0625 538.3125 C-54.09836243 538.31067719 -55.13422485 538.30885437 -56.20147705 538.30697632 C-71.67804034 538.26115234 -86.73357164 537.73798609 -102 535 C-103.49104248 534.75056641 -103.49104248 534.75056641 -105.01220703 534.49609375 C-156.64147755 525.7604503 -199.47170309 503.56269193 -237.625 468.19140625 C-239.71310039 466.26472151 -241.83861873 464.40577475 -244 462.5625 C-251.93581013 455.65329364 -259.2061825 448.02385603 -266 440 C-266.80824219 439.08089844 -267.61648438 438.16179687 -268.44921875 437.21484375 C-280.61118221 423.29178203 -290.73920394 407.97291267 -300 392 C-300.3928418 391.32565918 -300.78568359 390.65131836 -301.19042969 389.95654297 C-332.28438132 335.89335937 -338.34703718 270.89516083 -323 211 C-322.78504883 210.15953125 -322.57009766 209.3190625 -322.34863281 208.453125 C-312.32109677 170.32150812 -292.58049134 135.53611699 -268 105 C-267.45939941 104.32807617 -266.91879883 103.65615234 -266.36181641 102.96386719 C-259.51454176 94.55830757 -252.00600022 86.81849983 -244.375 79.125 C-243.51624268 78.25681641 -242.65748535 77.38863281 -241.77270508 76.49414062 C-235.82423093 70.57571214 -229.5824622 65.19968587 -223 60 C-221.9174292 59.13640869 -221.9174292 59.13640869 -220.81298828 58.25537109 C-179.62176765 25.61686197 -131.16429907 4.09819977 -79 -3 C-77.89966431 -3.15577515 -77.89966431 -3.15577515 -76.77709961 -3.31469727 C-51.74602717 -6.3536571 -24.59980094 -5.23807137 0 0 Z M-145 67 C-145.69383789 67.32081543 -146.38767578 67.64163086 -147.10253906 67.97216797 C-169.5232582 78.42844366 -189.27593493 92.80534074 -207 110 C-207.54108398 110.51530273 -208.08216797 111.03060547 -208.63964844 111.56152344 C-216.37780436 118.93659873 -223.26430672 126.65058578 -229.65722656 135.21728516 C-230.99423316 136.99234374 -232.36415379 138.73714363 -233.7421875 140.48046875 C-246.00856265 156.24717966 -254.17470254 174.32810039 -261 193 C-261.27682617 193.74813965 -261.55365234 194.4962793 -261.83886719 195.26708984 C-280.90029675 247.38136018 -279.65971185 304.56405292 -256.85913086 355.24462891 C-247.26256034 375.84039438 -234.47078723 394.39209494 -219 411 C-217.78661781 412.39144666 -216.57802197 413.78708639 -215.375 415.1875 C-208.8614401 422.62307066 -201.72325512 428.83520505 -194 435 C-192.94848966 435.86499989 -191.8977252 436.73090715 -190.84765625 437.59765625 C-155.56560222 466.41674132 -111.93665076 483.85141811 -67 490 C-66.25210205 490.1023999 -65.5042041 490.2047998 -64.73364258 490.31030273 C-9.36132382 496.8409153 48.38616546 481.82187734 92.4375 447.4375 C98.89673187 442.25850116 105.0323 436.73484057 111 431 C111.59458008 430.43265137 112.18916016 429.86530273 112.80175781 429.28076172 C121.15590371 421.26914011 128.80303104 413.04598487 135.69384766 403.74169922 C136.99901003 402.00132008 138.3433434 400.2987167 139.69921875 398.59765625 C172.69760657 356.49036917 187.02212775 295.45903287 181.1796875 242.77148438 C178.00699646 218.28438489 170.77597645 194.70923066 159 173 C158.47019531 172.00274902 158.47019531 172.00274902 157.9296875 170.98535156 C143.65046949 144.1604537 123.04091704 119.60530918 99 101 C98.4524707 100.57605957 97.90494141 100.15211914 97.34082031 99.71533203 C87.3509786 92.03925208 76.88268651 85.33510857 66 79 C65.38753418 78.6380957 64.77506836 78.27619141 64.14404297 77.90332031 C2.08153174 41.53924729 -79.86532827 36.47459614 -145 67 Z " fill="#FFFFFF" transform="translate(4665,627)"/>
<path d="M0 0 C0.96627319 0.00054382 1.93254639 0.00108765 2.92810059 0.00164795 C18.83357776 0.04267698 34.0935703 1.00561098 49.6875 4.375 C50.71665527 4.59462402 51.74581055 4.81424805 52.80615234 5.04052734 C74.08129468 9.71068054 94.08864767 16.92119675 113.6875 26.375 C114.7712793 26.89634521 114.7712793 26.89634521 115.87695312 27.42822266 C137.08577119 37.78201776 156.8098512 51.72481968 173.9921875 67.8671875 C176.15749326 69.8818633 178.35380151 71.79641841 180.625 73.6875 C201.11244481 91.5928495 217.08230075 115.44629726 229.6875 139.375 C230.05198242 140.05916992 230.41646484 140.74333984 230.79199219 141.44824219 C247.90259559 174.02332739 256.1513303 210.97638668 255.89331055 247.62524414 C255.87485186 250.33424176 255.87280323 253.04289855 255.87304688 255.75195312 C255.86813605 257.51041957 255.86230964 259.26888375 255.85546875 261.02734375 C255.85435593 261.81922592 255.8532431 262.61110809 255.85209656 263.42698669 C255.804111 269.18256426 255.26624429 274.58755709 254.6875 280.375 C104.5375 280.375 -45.6125 280.375 -200.3125 280.375 C-190.61939617 338.53362296 -168.74380372 395.2291896 -121.3125 433.375 C-120.25090994 434.25994646 -119.18975507 435.14541509 -118.12890625 436.03125 C-96.62856534 453.80217834 -72.62645298 468.02261151 -46.3125 477.375 C-45.54405762 477.65037598 -44.77561523 477.92575195 -43.98388672 478.20947266 C9.51194426 497.04827197 67.89100899 493.9615856 119.08691406 469.5012207 C136.8127111 460.75163069 152.7042438 450.24210703 167.6875 437.375 C168.84958984 436.39080078 168.84958984 436.39080078 170.03515625 435.38671875 C171.94574249 433.74290841 173.8217148 432.06951195 175.6875 430.375 C176.15671875 429.94944824 176.6259375 429.52389648 177.109375 429.08544922 C184.52795746 422.36675289 184.52795746 422.36675289 191.6875 415.375 C194.91194254 416.44981418 195.52024667 417.05072058 197.625 419.5625 C198.2334375 420.27921875 198.841875 420.9959375 199.46875 421.734375 C200.2009375 422.60578125 200.933125 423.4771875 201.6875 424.375 C203.14278188 426.08183775 204.60181327 427.7854038 206.06201172 429.48803711 C207.10506306 430.70558204 208.14575226 431.92515451 209.18408203 433.14672852 C212.8078333 437.39967496 216.55595768 441.50551347 220.45703125 445.5078125 C221.6875 447.375 221.6875 447.375 221.65234375 449.3125 C220.34429211 452.10865898 218.55089109 454.00364722 216.4375 456.25 C212.66314759 460.30518455 212.66314759 460.30518455 209.125 464.5625 C206.61528501 467.45832499 203.99345655 469.88019298 201.07421875 472.3515625 C199.36666449 473.79921079 197.6843338 475.27682145 196.01953125 476.7734375 C160.2111645 508.6535106 113.58229072 525.63892811 66.6875 532.375 C65.53773682 532.54273926 65.53773682 532.54273926 64.36474609 532.71386719 C50.54824207 534.66089176 36.62257711 535.08920655 22.6875 535.375 C21.99432678 535.3893811 21.30115356 535.40376221 20.5869751 535.4185791 C-44.94878432 536.72001924 -104.88627649 519.88867797 -154.3125 475.375 C-154.8904834 474.85873047 -155.4684668 474.34246094 -156.06396484 473.81054688 C-162.55876143 467.99495648 -168.74614484 462.10101248 -174.3125 455.375 C-175.1065625 454.46878906 -175.900625 453.56257813 -176.71875 452.62890625 C-212.46009651 411.72732498 -233.90040825 360.5422713 -243.3125 307.375 C-243.47766113 306.48554687 -243.64282227 305.59609375 -243.81298828 304.6796875 C-246.58167734 289.14983286 -246.62387727 273.53858566 -246.6875 257.8125 C-246.69544586 256.78512726 -246.70339172 255.75775452 -246.71157837 254.69924927 C-246.82668903 235.29855707 -245.17371224 216.1044444 -241 197.125 C-240.78762695 196.14160645 -240.57525391 195.15821289 -240.35644531 194.14501953 C-230.99069993 151.9991653 -211.40072071 112.59293748 -181.80859375 81.05859375 C-179.68190178 78.77215027 -177.64177439 76.44512916 -175.625 74.0625 C-172.16746864 70.09244046 -168.33326219 66.76054934 -164.3125 63.375 C-163.41144531 62.57449219 -162.51039062 61.77398438 -161.58203125 60.94921875 C-117.26811253 21.86440014 -58.8562422 -0.12506478 0 0 Z M-113.3125 81.375 C-113.90836914 81.79442871 -114.50423828 82.21385742 -115.11816406 82.64599609 C-141.28805114 101.3777378 -160.79550305 127.50622007 -174.38574219 156.4375 C-175.29728146 158.3431838 -176.25440434 160.21838106 -177.2265625 162.09375 C-189.49649631 186.2194038 -196.8713871 213.52275812 -199.3125 240.375 C-65.3325 240.375 68.6475 240.375 206.6875 240.375 C206.6875 199.97345952 193.3265208 159.82320269 167.6875 128.375 C167.28096191 127.86839844 166.87442383 127.36179687 166.45556641 126.83984375 C129.95859049 81.50060164 75.9728734 54.55298151 18.44628906 48.19750977 C-28.08006693 43.63671159 -74.94247446 54.23874762 -113.3125 81.375 Z " fill="#FFFFFF" transform="translate(7135.3125,626.625)"/>
<path d="M0 0 C17.49 0 34.98 0 53 0 C61.54644757 18.01110851 70.06797907 36.01960815 78.27810669 54.1857605 C83.61414613 65.99064482 89.04083104 77.75158043 94.5 89.5 C100.21902908 101.81002603 105.90220971 114.1343567 111.5 126.5 C117.45767206 139.65859991 123.5103253 152.77162017 129.59274292 165.87298584 C135.6262937 178.86923335 141.63162571 191.8779419 147.60681152 204.90112305 C151.57300811 213.54545709 155.54466443 222.18716145 159.53515625 230.8203125 C159.9135968 231.6390686 160.29203735 232.45782471 160.6819458 233.3013916 C161.44719446 234.95691386 162.21245326 236.61243144 162.97772217 238.26794434 C168.84030547 250.9512349 174.6716989 263.64741259 180.4375 276.375 C186.81509078 290.45235451 193.30233084 304.47751923 199.81005859 318.49511719 C205.43726717 330.6175627 211.03348777 342.75381799 216.60681152 354.90112305 C220.57300811 363.54545709 224.54466443 372.18716145 228.53515625 380.8203125 C228.9135968 381.6390686 229.29203735 382.45782471 229.6819458 383.3013916 C230.44719446 384.95691386 231.21245326 386.61243144 231.97772217 388.26794434 C237.84030547 400.9512349 243.6716989 413.64741259 249.4375 426.375 C255.81509078 440.45235451 262.30233084 454.47751923 268.81005859 468.49511719 C274.43726717 480.6175627 280.03348777 492.75381799 285.60681152 504.90112305 C289.57300811 513.54545709 293.54466443 522.18716145 297.53515625 530.8203125 C297.9135968 531.6390686 298.29203735 532.45782471 298.6819458 533.3013916 C299.44719446 534.95691386 300.21245326 536.61243144 300.97772217 538.26794434 C306.84030547 550.9512349 312.6716989 563.64741259 318.4375 576.375 C324.01960833 588.69647383 329.67957495 600.98051054 335.375 613.25 C344.29927142 632.47751583 353.18681209 651.72128363 362 671 C362.34474365 671.75371887 362.6894873 672.50743774 363.04467773 673.28399658 C365.07589762 677.72613999 367.102377 682.17039296 369.12191772 686.61785889 C369.7437535 687.98613568 370.3668004 689.35386277 370.99111938 690.7210083 C371.84277936 692.58708465 372.68911817 694.45558684 373.53515625 696.32421875 C374.013479 697.37697998 374.49180176 698.42974121 374.98461914 699.5144043 C376 702 376 702 376 704 C357.52 704 339.04 704 320 704 C315.32172533 694.64345065 310.68104993 685.34860614 306.37109375 675.828125 C306.05640137 675.13396484 305.74170898 674.43980469 305.41748047 673.72460938 C305.09408691 673.01111328 304.77069336 672.29761719 304.4375 671.5625 C303.7424499 670.03503682 303.04713126 668.50769581 302.3515625 666.98046875 C300.5745206 663.07684049 298.80092124 659.17165979 297.02850342 655.26593018 C295.4176344 651.71697093 293.80448779 648.16904776 292.19140625 644.62109375 C290.34133819 640.55169886 288.49168778 636.4821169 286.64404297 632.41162109 C283.4641786 625.40788237 280.27437152 618.40888544 277.06640625 611.41796875 C270.01066607 596.03675568 263.03992312 580.62440438 256.2024231 565.14486694 C250.38537807 551.98904321 244.36390439 538.934256 238.28659058 525.89694214 C232.30372045 513.05634041 226.47598877 500.15674267 220.76123047 487.19482422 C216.14383368 476.72948867 211.39228168 466.3395728 206.5 456 C201.25801926 444.92135714 196.19437648 433.77707835 191.25 422.5625 C185.47851888 409.47213228 179.5447921 396.46637709 173.5 383.5 C167.10975508 369.79260958 160.8624002 356.03318104 154.76123047 342.19482422 C150.14383368 331.72948867 145.39228168 321.3395728 140.5 311 C135.25801926 299.92135714 130.19437648 288.77707835 125.25 277.5625 C119.47851668 264.47212728 113.54457333 251.4664818 107.5 238.5 C101.54272296 225.7192778 95.68826768 212.90273461 90 200 C83.50791113 185.27754586 76.79060298 170.66773729 70.00268555 156.07958984 C65.05725951 145.44976247 60.15242806 134.80328581 55.3125 124.125 C55.01472656 123.46815216 54.71695313 122.81130432 54.41015625 122.134552 C53.2100551 119.4871142 52.01000264 116.83965437 50.8102417 114.19206238 C47.03725657 105.8698613 43.23724809 97.56000649 39.4375 89.25 C39.10529449 88.52315002 38.77308899 87.79630005 38.43081665 87.04742432 C34.30604093 78.02286121 30.1652997 69.0059488 26 60 C17.19706894 78.93982584 8.43265336 97.89189813 0 117 C-5.90760736 130.38530116 -11.98085868 143.68610148 -18.14047241 156.95718384 C-23.99192006 169.57067408 -29.6986745 182.24131434 -35.31640625 194.96044922 C-40.11681834 205.82491128 -45.04248978 216.61828244 -50.08081055 227.375 C-54.38336389 236.59372476 -58.51697022 245.88088312 -62.625 255.1875 C-68.50446001 268.50465573 -74.54345061 281.74038802 -80.6875 294.9375 C-86.62674464 307.69535815 -92.50063799 320.4741594 -98.22607422 333.32958984 C-102.3597831 342.60271589 -106.57762066 351.83524814 -110.8125 361.0625 C-116.25395057 372.92062172 -121.60132094 384.81637757 -126.875 396.75 C-132.82653196 410.2168991 -138.94159957 423.6011398 -145.1399231 436.95608521 C-150.99156219 449.56993927 -156.69850855 462.24093862 -162.31640625 474.96044922 C-167.11681834 485.82491128 -172.04248978 496.61828244 -177.08081055 507.375 C-181.38336389 516.59372476 -185.51697022 525.88088312 -189.625 535.1875 C-195.50446001 548.50465573 -201.54345061 561.74038802 -207.6875 574.9375 C-213.62674464 587.69535815 -219.50063799 600.4741594 -225.22607422 613.32958984 C-229.02972053 621.86228837 -232.90148133 630.36163197 -236.79812622 638.85217285 C-244.78224676 656.24962412 -252.59082631 673.72181707 -260.33105469 691.22900391 C-262.21601234 695.48808171 -264.10838817 699.74387338 -266 704 C-284.81 704 -303.62 704 -323 704 C-321.07350439 698.22051317 -319.31781813 693.23696672 -316.734375 687.84375 C-316.42463242 687.19236557 -316.11488983 686.54098114 -315.79576111 685.86985779 C-315.13113051 684.47284483 -314.46432347 683.07686553 -313.79550171 681.68185425 C-311.97789115 677.88868845 -310.17879155 674.08675701 -308.37890625 670.28515625 C-308.00969559 669.50604385 -307.64048492 668.72693146 -307.26008606 667.92420959 C-303.65378772 660.29884054 -300.15968748 652.6246443 -296.6875 644.9375 C-291.04949739 632.46694664 -285.32787468 620.03717148 -279.5625 607.625 C-273.64920075 594.89226474 -267.76333703 582.14800306 -261.9375 569.375 C-256.36222946 557.15323704 -250.75749202 544.94550382 -245.125 532.75 C-244.56416718 531.53552185 -244.56416718 531.53552185 -243.99200439 530.29650879 C-240.56089548 522.86702513 -237.1277516 515.43848284 -233.69287109 508.01074219 C-231.39852034 503.04924091 -229.10503562 498.08734025 -226.8125 493.125 C-226.43626495 492.31065491 -226.06002991 491.49630981 -225.6723938 490.6572876 C-220.28898126 479.00116382 -214.95623086 467.32307337 -209.6578064 455.62811279 C-203.57942597 442.21759797 -197.38989465 428.85953673 -191.18994141 415.50488281 C-185.56273283 403.3824373 -179.96651223 391.24618201 -174.39318848 379.09887695 C-170.42699189 370.45454291 -166.45533557 361.81283855 -162.46484375 353.1796875 C-161.89718292 351.95155334 -161.89718292 351.95155334 -161.3180542 350.6986084 C-160.55280554 349.04308614 -159.78754674 347.38756856 -159.02227783 345.73205566 C-153.15969453 333.0487651 -147.3283011 320.35258741 -141.5625 307.625 C-135.18490922 293.54764549 -128.69766916 279.52248077 -122.18994141 265.50488281 C-116.56273283 253.3824373 -110.96651223 241.24618201 -105.39318848 229.09887695 C-101.42699189 220.45454291 -97.45533557 211.81283855 -93.46484375 203.1796875 C-92.89718292 201.95155334 -92.89718292 201.95155334 -92.3180542 200.6986084 C-91.55280554 199.04308614 -90.78754674 197.38756856 -90.02227783 195.73205566 C-84.15969453 183.0487651 -78.3283011 170.35258741 -72.5625 157.625 C-66.18490922 143.54764549 -59.69766916 129.52248077 -53.18994141 115.50488281 C-47.91421022 104.13960944 -42.66302754 92.76344138 -37.4375 81.375 C-30.81289191 66.93818172 -24.16567875 52.51195507 -17.50170898 38.09326172 C-11.64127863 25.4074278 -5.8224676 12.70356568 0 0 Z " fill="#FFFFFF" transform="translate(5780,453)"/>
<path d="M0 0 C7.46576435 -0.39679025 14.93042059 -0.69733368 22.40437603 -0.88080692 C25.87733399 -0.96896943 29.3430076 -1.08802147 32.81176758 -1.2824707 C55.08695537 -2.49842244 55.08695537 -2.49842244 61.47372437 1.57943726 C65.57457193 5.46007921 68.33204303 9.98108136 70.91500854 14.96517944 C72.2881493 17.54040252 73.98002595 19.72230791 75.83984375 21.96484375 C76.35772461 22.6297583 76.87560547 23.29467285 77.40917969 23.97973633 C77.91352539 24.62579834 78.41787109 25.27186035 78.9375 25.9375 C80.10808068 27.44009812 81.27865335 28.94270248 82.44921875 30.4453125 C83.0323584 31.19329102 83.61549805 31.94126953 84.21630859 32.71191406 C87.22953417 36.57722341 90.24020532 40.44451873 93.25 44.3125 C93.83773193 45.06781006 94.42546387 45.82312012 95.03100586 46.60131836 C99.16492467 51.9175205 103.27421789 57.25194173 107.375 62.59375 C110.56627975 66.74241368 113.784213 70.87032481 117 75 C121.81351723 81.18146123 126.60424879 87.37921882 131.375 93.59375 C134.56627975 97.74241368 137.784213 101.87032481 141 106 C145.01465625 111.15557352 149.02101023 116.31684228 153 121.5 C159.29429617 129.69698374 165.65013322 137.84603994 172 146 C179.14879829 155.17988011 186.28995283 164.36454382 193.375 173.59375 C196.56628007 177.7424141 199.78426975 181.87028011 203 186 C207.17779667 191.3664632 211.3511356 196.73612532 215.5 202.125 C216.28375 203.14207031 217.0675 204.15914062 217.875 205.20703125 C220.25409275 208.33396381 222.57067542 211.5022604 224.84375 214.70703125 C225.2253125 215.13371094 225.606875 215.56039062 226 216 C226.66 216 227.32 216 228 216 C229.40053089 214.32479602 230.71897712 212.58076908 232 210.8125 C232.81297154 209.70251622 233.62680343 208.59316216 234.44140625 207.484375 C234.86309082 206.90751953 235.28477539 206.33066406 235.71923828 205.73632812 C237.751864 202.98069829 239.84321481 200.27139445 241.9375 197.5625 C242.78519115 196.46356859 243.63284724 195.36461013 244.48046875 194.265625 C244.89989746 193.72228516 245.31932617 193.17894531 245.75146484 192.61914062 C247.75542256 190.02034369 249.75179728 187.41572318 251.75 184.8125 C255.74891216 179.60785765 259.77839711 174.42739328 263.8125 169.25 C270.10270513 161.17506039 276.32812595 153.05212805 282.53759766 144.91503906 C288.58678383 136.99353383 294.68704181 129.11257831 300.8125 121.25 C307.09688802 113.18240086 313.31645886 105.06682789 319.52001953 96.93701172 C322.54338094 92.98000918 325.58272853 89.03532924 328.62109375 85.08984375 C330.19811979 83.04152258 331.77365859 80.99205545 333.34765625 78.94140625 C338.1456476 72.69231508 342.97010864 66.46475583 347.8125 60.25 C354.09694941 52.1824492 360.31645938 44.06682722 366.52001953 35.93701172 C368.73618913 33.03646907 370.96086448 30.14251228 373.1875 27.25 C373.98027344 26.22003906 374.77304687 25.19007813 375.58984375 24.12890625 C377.26909143 21.94887806 378.9488068 19.76921512 380.62890625 17.58984375 C381.06759033 17.02040039 381.50627441 16.45095703 381.95825195 15.86425781 C383.16447361 14.29851781 384.37127714 12.73322613 385.578125 11.16796875 C387.92057507 8.2817515 387.92057507 8.2817515 389.08236694 5.96809387 C390.51763385 3.51625172 391.80898872 1.82415713 394 0 C398.42923474 -1.12027432 402.7294305 -0.93283891 407.2734375 -0.78125 C408.55231842 -0.76993042 409.83119934 -0.75861084 411.14883423 -0.74694824 C414.53395158 -0.7098216 417.9146827 -0.63810332 421.29858398 -0.54931641 C424.75726592 -0.46717017 428.216403 -0.43087647 431.67578125 -0.390625 C438.45172523 -0.30251332 445.22560962 -0.16871655 452 0 C447.83664511 7.47141672 447.83664511 7.47141672 445.1875 10.62109375 C444.41974243 11.54643921 444.41974243 11.54643921 443.63647461 12.49047852 C443.09643799 13.13299561 442.55640137 13.7755127 442 14.4375 C437.49971434 19.87865623 433.13881927 25.38724108 428.9375 31.0625 C425.05951516 36.29535898 421.095441 41.4354444 417 46.5 C412.88721701 51.58726827 408.9007575 56.74841875 405 62 C401.11617938 67.22703048 397.15258313 72.37017005 393.0625 77.4375 C388.27399097 83.37040801 383.61182256 89.38849479 378.99414062 95.45507812 C373.31196679 102.91672277 367.5501969 110.31536294 361.78369141 117.71191406 C358.77046583 121.57722341 355.75979468 125.44451873 352.75 129.3125 C352.16226807 130.06781006 351.57453613 130.82312012 350.96899414 131.60131836 C347.633179 135.89116255 344.30962331 140.18991866 341 144.5 C334.10039094 153.4852752 327.12848881 162.41442988 320.16796875 171.35253906 C311.55907251 182.40698713 311.55907251 182.40698713 303 193.5 C296.10039094 202.4852752 289.12848881 211.41442988 282.16796875 220.35253906 C274.74976039 229.87945655 267.33200656 239.40645114 260 249 C259.39542969 249.69351563 258.79085937 250.38703125 258.16796875 251.1015625 C256.83672808 252.89134906 256.83672808 252.89134906 257.0078125 254.8515625 C258.48849139 258.05775694 260.65657292 260.65843554 262.875 263.375 C263.88687068 264.63789911 264.8985853 265.90092328 265.91015625 267.1640625 C266.68576904 268.12554199 266.68576904 268.12554199 267.47705078 269.10644531 C269.7793489 271.96900129 272.04620802 274.85891469 274.3125 277.75 C274.98357788 278.60392334 274.98357788 278.60392334 275.66821289 279.47509766 C282.41751373 288.0668359 289.1090672 296.70374797 295.81152344 305.33203125 C301.69157631 312.900731 307.57179176 320.46892321 313.5 328 C320.64584422 337.07793711 327.72424644 346.20835606 334.81152344 355.33203125 C340.69157631 362.900731 346.57179176 370.46892321 352.5 378 C359.64584422 387.07793711 366.72424644 396.20835606 373.81152344 405.33203125 C380.12704223 413.461255 386.44893135 421.58481513 392.81713867 429.67285156 C397.17070599 435.20668407 401.48903024 440.76773655 405.80859375 446.328125 C409.35890492 450.89614024 412.9209981 455.4544354 416.5 460 C423.64596467 469.07784108 430.72424735 478.20835724 437.81152344 487.33203125 C439.60321006 489.63825848 441.39527186 491.94419357 443.1875 494.25 C443.7659668 494.99451416 444.34443359 495.73902832 444.94042969 496.50610352 C447.66598056 500.01110017 450.39791311 503.51065007 453.1484375 506.99609375 C453.64190674 507.62161133 454.13537598 508.24712891 454.64379883 508.89160156 C455.54837262 510.03667897 456.45431714 511.18067581 457.36206055 512.32324219 C466 523.25336751 466 523.25336751 466 525 C458.29033642 525.42034225 450.58342977 525.73842821 442.86513329 525.93261909 C439.27864877 526.02593381 435.70008399 526.15190929 432.11816406 526.35791016 C409.12109741 527.64588388 409.12109741 527.64588388 402.37890625 523.31716919 C398.06034746 519.2552024 395.12275299 514.58146147 392.35136414 509.38008118 C390.05979969 505.3440784 387.13602104 501.80891107 384.25 498.1875 C383.17272631 496.78228464 382.09809453 495.37503578 381.02734375 493.96484375 C378.29718638 490.38695054 375.55782436 486.81626473 372.8125 483.25 C372.01070312 482.2084375 371.20890625 481.166875 370.3828125 480.09375 C369.59648437 479.0728125 368.81015625 478.051875 368 477 C361.92600764 469.11376729 355.86811983 461.21558237 349.82373047 453.30664062 C344.89614609 446.86052906 339.95056996 440.42847258 335 434 C333.33304708 431.83355349 331.66652587 429.66677503 330 427.5 C329.16667453 426.41666062 328.3333412 425.33332728 327.5 424.25 C319.16666667 413.41666667 310.83333333 402.58333333 302.5 391.75 C302.0877417 391.21407227 301.6754834 390.67814453 301.25073242 390.12597656 C300.41492624 389.03941221 299.57915165 387.95282355 298.7434082 386.86621094 C296.69816364 384.20711452 294.65230009 381.5485006 292.60546875 378.890625 C287.33103962 372.03983176 282.07374453 365.17616091 276.82373047 358.30664062 C271.89614609 351.86052906 266.95056996 345.42847258 262 339 C260.33304708 336.83355349 258.66652587 334.66677503 257 332.5 C256.16667453 331.41666062 255.3333412 330.33332728 254.5 329.25 C252.83333333 327.08333333 251.16666667 324.91666667 249.5 322.75 C249.08709717 322.2132666 248.67419434 321.6765332 248.2487793 321.12353516 C247.4193575 320.04520574 246.59009198 318.96675611 245.76098633 317.88818359 C243.61910264 315.10226055 241.47416226 312.31877167 239.32421875 309.5390625 C235.11673235 304.09403469 230.9383677 298.6449937 227 293 C221.28641052 299.72748322 215.78532909 306.52623694 210.53125 313.62109375 C207.501248 317.69265894 204.37299943 321.68711482 201.25 325.6875 C194.94143593 333.77354462 188.70137766 341.9097972 182.47998047 350.06298828 C179.45661906 354.01999082 176.41727147 357.96467076 173.37890625 361.91015625 C171.80188021 363.95847742 170.22634141 366.00794455 168.65234375 368.05859375 C163.8543524 374.30768492 159.02989136 380.53524417 154.1875 386.75 C147.90305059 394.8175508 141.68354062 402.93317278 135.47998047 411.06298828 C132.45661906 415.01999082 129.41727147 418.96467076 126.37890625 422.91015625 C124.80188021 424.95847742 123.22634141 427.00794455 121.65234375 429.05859375 C116.8543524 435.30768492 112.02989136 441.53524417 107.1875 447.75 C100.90305059 455.8175508 94.68354062 463.93317278 88.47998047 472.06298828 C85.45661906 476.01999082 82.41727147 479.96467076 79.37890625 483.91015625 C77.80188021 485.95847742 76.22634141 488.00794455 74.65234375 490.05859375 C70.92805014 494.90925909 67.1961657 499.75314312 63.43359375 504.57421875 C62.81387695 505.36868408 62.19416016 506.16314941 61.55566406 506.98168945 C60.34145386 508.53721777 59.126026 510.09179664 57.90917969 511.64526367 C57.34489258 512.36818604 56.78060547 513.0911084 56.19921875 513.8359375 C55.70252686 514.47063965 55.20583496 515.1053418 54.6940918 515.75927734 C52.99966268 517.83950715 52.99966268 517.83950715 52.15879822 519.7936554 C50.96967444 522.03302888 49.99033718 523.41031133 48 525 C43.53773815 525.99807209 39.15775925 525.81363537 34.60546875 525.68359375 C33.30297684 525.67368912 32.00048492 525.66378448 30.65852356 525.65357971 C27.20688712 525.62693752 23.7573351 525.55825777 20.30651855 525.48065186 C16.78080443 525.40885394 13.25475113 525.37703351 9.72851562 525.34179688 C2.81815774 525.26687604 -4.09082089 525.1475142 -11 525 C-9.24498122 521.32849678 -7.00605522 518.25063141 -4.5 515.0625 C-3.59365985 513.89720553 -2.68741242 512.73183894 -1.78125 511.56640625 C-1.31847656 510.97359863 -0.85570313 510.38079102 -0.37890625 509.77001953 C1.76068874 507.02354933 3.87984907 504.26148819 6 501.5 C6.83322305 500.41658184 7.66655671 499.33324874 8.5 498.25 C8.9125 497.71375 9.325 497.1775 9.75 496.625 C51 443 92.25 389.375 173.5 283.75 C173.9129834 283.21310547 174.3259668 282.67621094 174.75146484 282.12304688 C175.57985237 281.04617549 176.40830228 279.96935211 177.23681641 278.89257812 C179.39635041 276.0857793 181.55460149 273.27800665 183.7109375 270.46875 C184.15695312 269.88802734 184.60296875 269.30730469 185.0625 268.70898438 C186.2998068 267.09790782 187.53663757 265.48646571 188.7734375 263.875 C191 261 191 261 193.3515625 258.375 C195.24746934 256.21054066 195.24746934 256.21054066 194.74902344 254.06396484 C193.96430602 251.90164377 193.0563434 250.4262744 191.6640625 248.6015625 C191.18275879 247.96492676 190.70145508 247.32829102 190.20556641 246.67236328 C189.68397949 245.9967334 189.16239258 245.32110352 188.625 244.625 C188.08407715 243.91456543 187.5431543 243.20413086 186.98583984 242.47216797 C182.67856422 236.83261567 178.30355955 231.24609147 173.90234375 225.6796875 C170.64185154 221.55370737 167.41395265 217.40262178 164.1875 213.25 C163.59855957 212.49219238 163.00961914 211.73438477 162.40283203 210.95361328 C161.20123508 209.40730392 159.99973823 207.86091676 158.79833984 206.31445312 C155.86700637 202.54184366 152.93340802 198.77099645 150 195 C148.83332206 193.50000877 147.6666554 192.00000876 146.5 190.5 C145.9225 189.7575 145.345 189.015 144.75 188.25 C143 186 141.25 183.75 139.5 181.5 C138.92217773 180.75709717 138.34435547 180.01419434 137.74902344 179.2487793 C136.58556688 177.75288338 135.42215522 176.25695255 134.25878906 174.76098633 C131.29338002 170.94790224 128.32712738 167.13547936 125.359375 163.32421875 C119.42016436 155.69540508 113.49764033 148.05493357 107.609375 140.38671875 C102.70605374 134.01278359 97.7551514 127.67553266 92.81445312 121.33056641 C89.87486662 117.55482734 86.93752285 113.77734465 84 110 C82.83334461 108.49999123 81.66667793 106.99999124 80.5 105.5 C73.5 96.5 66.5 87.5 59.5 78.5 C58.92217773 77.75709717 58.34435547 77.01419434 57.74902344 76.2487793 C56.58556688 74.75288338 55.42215522 73.25695255 54.25878906 71.76098633 C51.29338002 67.94790224 48.32712738 64.13547936 45.359375 60.32421875 C40.22405297 53.72798614 35.0912807 47.13031163 30 40.5 C26.03790215 35.34081511 22.05508444 30.19812706 18.0625 25.0625 C17.47194824 24.30195312 16.88139648 23.54140625 16.27294922 22.7578125 C13.42222476 19.09158813 10.55891094 15.43699631 7.66015625 11.80859375 C7.14638428 11.1633374 6.6326123 10.51808105 6.10327148 9.85327148 C5.13950327 8.64501971 4.17174709 7.43993496 3.19946289 6.23852539 C0 2.22233351 0 2.22233351 0 0 Z " fill="#FFFFFF" transform="translate(7458,632)"/>
<path d="M0 0 C17.16 0 34.32 0 52 0 C52 37.95 52 75.9 52 115 C107.11 115 162.22 115 219 115 C219 129.52 219 144.04 219 159 C163.89 159 108.78 159 52 159 C51.91257149 222.03612681 51.91257149 222.03612681 51.85351562 285.07226562 C51.84764241 293.57918312 51.84158108 302.08610045 51.83520508 310.59301758 C51.83441383 311.65915364 51.83362259 312.7252897 51.83280736 313.82373291 C51.81977574 331.01348237 51.79613329 348.20320158 51.76854161 365.39293312 C51.7404416 383.04719706 51.72381404 400.70144521 51.71773452 418.35573059 C51.7136276 429.24068848 51.70067773 440.12556089 51.6762506 451.01049245 C51.66033663 458.48470172 51.6556124 465.95886709 51.65949587 473.43309205 C51.66140864 477.73894821 51.65857191 482.04465548 51.64238358 486.35048485 C51.62762745 490.30457289 51.62714771 494.258414 51.63730332 498.21251417 C51.63855573 499.63138562 51.63488426 501.05027343 51.62535045 502.4691134 C51.47141326 526.82529561 57.67639132 549.43945235 74 568 C74.65484375 568.75023437 75.3096875 569.50046875 75.984375 570.2734375 C94.89442984 590.53421054 123.00906038 598.87245525 150 600 C177.7346474 600.53718904 206.11582286 591.07287557 226.9609375 572.65234375 C229 571 229 571 231 571 C232.5238887 573.25820968 233.91580203 575.50695835 235.28125 577.859375 C235.69540161 578.56016174 236.10955322 579.26094849 236.53625488 579.98297119 C237.86444689 582.23464139 239.18211874 584.49228277 240.5 586.75 C241.38867617 588.25819377 242.27799115 589.76601133 243.16796875 591.2734375 C250.19160555 603.20237165 250.19160555 603.20237165 252 607 C230.70894056 630.88753011 193.82367788 641.37437602 163 644 C159.92555581 644.15437326 156.85530608 644.20896176 153.77734375 644.23828125 C152.92251404 644.24812042 152.06768433 644.25795959 151.18695068 644.26809692 C108.78583648 644.65570991 69.51824166 637.78316615 37.65234375 607.7421875 C2.23188858 571.1219231 -0.1782288 522.8745606 -0.11606562 474.690467 C-0.11170599 470.44464575 -0.11321142 466.1988258 -0.1139679 461.95300293 C-0.11448967 454.61519948 -0.11137929 447.277405 -0.10573006 439.93960381 C-0.0975678 429.33066108 -0.09499501 418.72172265 -0.09374207 408.11277712 C-0.09155894 390.89622722 -0.08491898 373.67968208 -0.07543945 356.46313477 C-0.06624616 339.7489423 -0.05917472 323.03475113 -0.05493164 306.32055664 C-0.05466892 305.28853547 -0.05440619 304.25651431 -0.05413551 303.19321977 C-0.05283038 298.01534784 -0.05156669 292.8374759 -0.05032361 287.65960395 C-0.03997403 244.77306507 -0.02154819 201.88653501 0 159 C-31.68 159 -63.36 159 -96 159 C-96 144.48 -96 129.96 -96 115 C-64.32 115 -32.64 115 0 115 C0 77.05 0 39.1 0 0 Z " fill="#FFFFFF" transform="translate(4025,517)"/>
<path d="M0 0 C16.83 0 33.66 0 51 0 C51 236.94 51 473.88 51 718 C34.17 718 17.34 718 0 718 C0 481.06 0 244.12 0 0 Z " fill="#FFFFFF" transform="translate(5038,439)"/>
<path d="M0 0 C3.53729354 2.7908191 6.66222847 6.00344526 9.83154297 9.20019531 C11.37392196 10.74891753 12.94110228 12.26904769 14.51171875 13.7890625 C15.49641032 14.76920986 16.47953972 15.75092967 17.4609375 16.734375 C18.80357666 18.06807129 18.80357666 18.06807129 20.17333984 19.42871094 C22 22 22 22 21.96362305 24.32519531 C21.64562744 25.20788086 21.32763184 26.09056641 21 27 C20.58032959 28.22847656 20.16065918 29.45695313 19.72827148 30.72265625 C19.19640636 32.17069475 18.66043292 33.61722865 18.12109375 35.0625 C17.83332062 35.84227203 17.54554749 36.62204407 17.24905396 37.42544556 C16.31554372 39.95167438 15.37662009 42.47585188 14.4375 45 C13.79330348 46.73998465 13.14934257 48.48005655 12.50561523 50.22021484 C8.93624429 59.85627792 5.31664779 69.47152764 1.62451172 79.0612793 C-0.50115577 84.61036006 -2.49538814 90.19674821 -4.4375 95.8125 C-9.25478856 109.74083675 -14.51799541 123.50172777 -19.7734375 137.26953125 C-20.72438043 139.76286121 -21.67507092 142.25628395 -22.625 144.75 C-22.86083801 145.36901184 -23.09667603 145.98802368 -23.33966064 146.62579346 C-26.50395648 154.94135716 -29.54745606 163.28540059 -32.44677734 171.6965332 C-36.93146805 184.65922309 -41.88229187 197.45608365 -46.7734375 210.26953125 C-47.72438043 212.76286121 -48.67507092 215.25628395 -49.625 217.75 C-49.86083801 218.36901184 -50.09667603 218.98802368 -50.33966064 219.62579346 C-53.50395648 227.94135716 -56.54745606 236.28540059 -59.44677734 244.6965332 C-63.93146805 257.65922309 -68.88229187 270.45608365 -73.7734375 283.26953125 C-74.72438043 285.76286121 -75.67507092 288.25628395 -76.625 290.75 C-76.86083801 291.36901184 -77.09667603 291.98802368 -77.33966064 292.62579346 C-80.50395648 300.94135716 -83.54745606 309.28540059 -86.44677734 317.6965332 C-90.93146805 330.65922309 -95.88229187 343.45608365 -100.7734375 356.26953125 C-101.72438043 358.76286121 -102.67507092 361.25628395 -103.625 363.75 C-103.86083801 364.36901184 -104.09667603 364.98802368 -104.33966064 365.62579346 C-107.50395648 373.94135716 -110.54745606 382.28540059 -113.44677734 390.6965332 C-117.93146805 403.65922309 -122.88229187 416.45608365 -127.7734375 429.26953125 C-128.72438043 431.76286121 -129.67507092 434.25628395 -130.625 436.75 C-130.86083801 437.36901184 -131.09667603 437.98802368 -131.33966064 438.62579346 C-134.49924481 446.92897521 -137.53956703 455.26021083 -140.43359375 463.65917969 C-145.48475725 478.26284257 -150.81746332 492.83298127 -157 507 C-162.89760758 502.06395887 -168.48791267 496.8619851 -174 491.5 C-174.88300781 490.67113281 -175.76601563 489.84226562 -176.67578125 488.98828125 C-177.50464844 488.17746094 -178.33351563 487.36664062 -179.1875 486.53125 C-179.94417969 485.80486328 -180.70085937 485.07847656 -181.48046875 484.33007812 C-183 482 -183 482 -182.81103516 478.91455078 C-181.89038603 475.60608924 -180.71091498 472.53976115 -179.375 469.375 C-176.91031995 463.4200633 -174.71049665 457.40998196 -172.625 451.3125 C-170.01833848 443.72113187 -167.1449877 436.28191477 -164.10839844 428.85346985 C-161.64521842 422.76185702 -159.43454352 416.61336205 -157.31640625 410.39453125 C-153.40991686 399.0515518 -149.2654555 387.80694083 -145.03564453 376.58105469 C-143.86542095 373.47457139 -142.69999425 370.36631874 -141.53515625 367.2578125 C-138.31724368 358.6867016 -135.08887822 350.12450651 -131.65625 341.63671875 C-129.47693834 336.24342738 -127.47968109 330.82449864 -125.625 325.3125 C-123.02267013 317.72237121 -120.1941238 310.25812501 -117.10400391 302.8527832 C-114.79057421 297.22943585 -112.76666868 291.52497538 -110.77734375 285.78125 C-107.23928818 275.57586166 -103.47821942 265.4627574 -99.64819336 255.36376953 C-98.56358669 252.5028664 -97.48368205 249.6402204 -96.40429688 246.77734375 C-92.61678885 236.7551535 -88.75931128 226.76744001 -84.71644592 216.84509277 C-82.46479049 211.28805246 -80.43944066 205.673036 -78.5 200 C-75.93016603 192.51559271 -73.15125264 185.15550742 -70.10351562 177.8515625 C-67.43480349 171.36471424 -65.14904314 164.75940843 -62.85072327 158.13508606 C-59.68038955 149.02459089 -56.3379971 139.98092021 -52.96557617 130.94360352 C-51.93188193 128.17243888 -50.90228397 125.39977586 -49.87304688 122.62695312 C-46.90314381 114.64396467 -43.90862894 106.67772321 -40.71484375 98.78125 C-38.51579769 93.33943598 -36.49637083 87.87406602 -34.625 82.3125 C-31.96254455 74.54813501 -29.05314402 66.91534 -25.92822266 59.32543945 C-23.05166555 52.29910735 -20.5171624 45.16126927 -18 38 C-19.39508789 38.54019775 -19.39508789 38.54019775 -20.81835938 39.09130859 C-43.26957508 47.77902262 -65.76978543 56.32738393 -88.32421875 64.74365234 C-90.25397833 65.46432526 -92.18366714 66.18518767 -94.11328125 66.90625 C-95.04693512 67.25507233 -95.98058899 67.60389465 -96.9425354 67.96328735 C-102.7666131 70.14544562 -108.56674775 72.38216869 -114.35546875 74.65625 C-119.92975896 76.84413991 -125.52738089 78.92434628 -131.18359375 80.890625 C-140.83361716 84.24755939 -150.36860681 87.89653727 -159.91137695 91.54528809 C-165.38829937 93.63918083 -170.86788895 95.72606575 -176.34765625 97.8125 C-177.47184967 98.24060974 -178.59604309 98.66871948 -179.75430298 99.10980225 C-193.77766392 104.44479693 -207.83097317 109.69993236 -221.88696289 114.94824219 C-231.1455307 118.40828924 -240.38494334 121.90820476 -249.59062195 125.50671387 C-260.80835884 129.88668731 -272.10598576 134.04780454 -283.41503906 138.18530273 C-303.4664588 145.5247498 -323.45295674 153.03595644 -343.43381119 160.56483459 C-345.72859131 161.4294339 -348.02350776 162.29367048 -350.31845093 163.15783691 C-354.70763028 164.81083069 -359.09625429 166.46529172 -363.484375 168.12109375 C-364.18390604 168.38503559 -364.88343708 168.64897743 -365.60416603 168.92091751 C-374.1276006 172.13862453 -382.63168736 175.40061156 -391.11073303 178.73374939 C-396.44605388 180.81751589 -401.83522112 182.71902726 -407.24620056 184.59584045 C-413.3364035 186.72622275 -419.35003101 189.03728718 -425.36328125 191.375 C-427.34044183 192.13945992 -429.31765569 192.90378203 -431.29492188 193.66796875 C-434.33500872 194.84354502 -437.37291122 196.02377163 -440.40600586 197.21728516 C-443.38651819 198.38810779 -446.37393199 199.53946249 -449.36328125 200.6875 C-450.27362625 201.05085449 -451.18397125 201.41420898 -452.12190247 201.78857422 C-452.96766342 202.10971191 -453.81342438 202.43084961 -454.68481445 202.76171875 C-455.42407669 203.05006592 -456.16333893 203.33841309 -456.92500305 203.63549805 C-459.63801342 204.11207589 -460.71642892 203.47543333 -463 202 C-464.87123204 200.31752947 -466.65317436 198.62729257 -468.421875 196.84375 C-469.17914886 196.08934631 -469.17914886 196.08934631 -469.95172119 195.31970215 C-471.01307997 194.25970014 -472.07193419 193.19718512 -473.12841797 192.13232422 C-474.75139124 190.49859954 -476.38481068 188.87586706 -478.01953125 187.25390625 C-479.05012146 186.22199524 -480.08009152 185.18946441 -481.109375 184.15625 C-481.59992371 183.66974976 -482.09047241 183.18324951 -482.59588623 182.68200684 C-486 179.22994349 -486 179.22994349 -486 177 C-476.21999095 173.360155 -466.4268149 169.7805485 -456.5625 166.375 C-450.24059597 164.18927061 -444.06190485 161.83137219 -437.91796875 159.1796875 C-433.86644057 157.54172028 -429.72230659 156.21924577 -425.56738281 154.87451172 C-420.58927234 153.24445455 -415.80886025 151.30023639 -410.99609375 149.2421875 C-403.82017795 146.26703597 -396.42737473 143.83670535 -389.0859375 141.3046875 C-380.91933274 138.48006645 -372.85609408 135.60573313 -364.91796875 132.1796875 C-360.86644057 130.54172028 -356.72230659 129.21924577 -352.56738281 127.87451172 C-347.58927234 126.24445455 -342.80886025 124.30023639 -337.99609375 122.2421875 C-330.82017795 119.26703597 -323.42737473 116.83670535 -316.0859375 114.3046875 C-307.91933274 111.48006645 -299.85609408 108.60573313 -291.91796875 105.1796875 C-287.86644057 103.54172028 -283.72230659 102.21924577 -279.56738281 100.87451172 C-274.58927234 99.24445455 -269.80886025 97.30023639 -264.99609375 95.2421875 C-257.78607195 92.25289554 -250.35736795 89.81189956 -242.98046875 87.26953125 C-242.10519531 86.96644043 -241.22992187 86.66334961 -240.328125 86.35107422 C-238.61716847 85.75913641 -236.90499643 85.17069567 -235.19140625 84.58642578 C-231.19034111 83.20261688 -227.29840073 81.72591157 -223.4453125 79.96875 C-219.11557612 77.99870811 -214.71800225 76.4974895 -210.1875 75.0625 C-203.95413904 73.03915564 -197.9141069 70.79910338 -191.890625 68.20703125 C-184.72347046 65.21425996 -177.32116267 62.7994218 -169.98046875 60.26953125 C-169.10519531 59.96644043 -168.22992187 59.66334961 -167.328125 59.35107422 C-165.61716847 58.75913641 -163.90499643 58.17069567 -162.19140625 57.58642578 C-158.19034111 56.20261688 -154.29840073 54.72591157 -150.4453125 52.96875 C-146.11557612 50.99870811 -141.71800225 49.4974895 -137.1875 48.0625 C-130.95413904 46.03915564 -124.9141069 43.79910338 -118.890625 41.20703125 C-111.72347046 38.21425996 -104.32116267 35.7994218 -96.98046875 33.26953125 C-96.10519531 32.96644043 -95.22992187 32.66334961 -94.328125 32.35107422 C-92.61716847 31.75913641 -90.90499643 31.17069567 -89.19140625 30.58642578 C-85.19034111 29.20261688 -81.29840073 27.72591157 -77.4453125 25.96875 C-73.11557612 23.99870811 -68.71800225 22.4974895 -64.1875 21.0625 C-57.95413904 19.03915564 -51.9141069 16.79910338 -45.890625 14.20703125 C-38.66551292 11.19005877 -31.20030367 8.76254845 -23.8046875 6.19921875 C-22.90685547 5.88710449 -22.00902344 5.57499023 -21.08398438 5.25341797 C-19.3075904 4.63641884 -17.53027439 4.0220666 -15.75195312 3.41064453 C-14.93404297 3.12688965 -14.11613281 2.84313477 -13.2734375 2.55078125 C-12.54560059 2.29981689 -11.81776367 2.04885254 -11.06787109 1.7902832 C-8.96352017 1.05301714 -8.96352017 1.05301714 -7.04541016 -0.15942383 C-4.20959867 -1.32482117 -2.88079346 -1.02687138 0 0 Z " fill="#FDFDFE" transform="translate(1035,532)"/>
<path d="M0 0 C17.16 0 34.32 0 52 0 C52 173.25 52 346.5 52 525 C34.84 525 17.68 525 0 525 C0 351.75 0 178.5 0 0 Z " fill="#FFFFFF" transform="translate(2805,632)"/>
<path d="M0 0 C16.83 0 33.66 0 51 0 C51 173.25 51 346.5 51 525 C34.17 525 17.34 525 0 525 C0 351.75 0 178.5 0 0 Z " fill="#FFFFFF" transform="translate(3753,632)"/>
<path d="M0 0 C10.62638619 8.84280547 16.92778309 20.27224829 19.375 33.875 C19.6629233 37.13058994 19.70943912 40.35795191 19.6875 43.625 C19.68186035 44.50607422 19.6762207 45.38714844 19.67041016 46.29492188 C19.39042546 61.38637398 14.39689631 74.61997566 3.859375 85.6171875 C-7.57144232 96.0055718 -20.58310085 99.23204344 -35.70703125 99.0234375 C-49.88004588 98.30245416 -62.40549637 93.97030827 -72.625 83.875 C-82.78975363 72.10215058 -87.22479087 57.43196805 -86.8671875 42.03515625 C-85.69808548 26.78026053 -80.11212155 12.30805984 -68.625 1.875 C-50.67673389 -13.08188843 -18.88263582 -13.76521479 0 0 Z " fill="#FFFFFF" transform="translate(2864.625,448.125)"/>
<path d="M0 0 C10.88486637 8.7329638 17.28527176 22.80836804 18.84765625 36.5078125 C20.15914259 53.81545798 16.28869207 69.73764402 5.09765625 83.3203125 C-3.73332191 92.70427412 -16.34848762 97.97624447 -29.15234375 98.5078125 C-29.84585938 98.54777344 -30.539375 98.58773437 -31.25390625 98.62890625 C-46.47798085 99.09946856 -60.98305302 94.97047899 -72.28125 84.54296875 C-83.4427513 72.83080514 -87.69339001 58.22724856 -87.57202148 42.36621094 C-87.10174202 27.97656647 -82.26674846 14.74156521 -72.33984375 4.1328125 C-53.24499032 -13.59812283 -21.18428856 -14.68674815 0 0 Z " fill="#FFFFFF" transform="translate(3813.15234375,448.4921875)"/>
</svg>
